<svg width="180" height="25" viewBox="0 0 180 25" fill="none" xmlns="http://www.w3.org/2000/svg">
<g filter="url(#filter0_d_27_963)">
<path d="M116.261 22.7257H111.871L105.056 16.2281H95.1038V13.0269H108.146C108.823 13.0269 109.457 12.9001 110.048 12.6465C110.64 12.3824 111.152 12.0284 111.585 11.5847C112.029 11.141 112.378 10.6233 112.631 10.0316C112.885 9.42941 113.012 8.79022 113.012 8.11405C113.012 7.43788 112.885 6.80397 112.631 6.21232C112.378 5.62067 112.029 5.10826 111.585 4.67509C111.152 4.23135 110.64 3.8827 110.048 3.62914C109.457 3.37557 108.823 3.24879 108.146 3.24879H93.2813V22.7257H90.0325V0H108.146C109.266 0 110.318 0.216586 111.3 0.649758C112.283 1.07236 113.139 1.65345 113.867 2.39301C114.607 3.12201 115.188 3.97779 115.611 4.96035C116.044 5.94291 116.261 6.99414 116.261 8.11405C116.261 9.12831 116.086 10.0897 115.738 10.9983C115.389 11.8964 114.908 12.7046 114.295 13.423C113.683 14.1309 112.959 14.7226 112.124 15.198C111.3 15.6629 110.407 15.9745 109.446 16.133L116.261 22.7257Z" fill="#050D41"/>
</g>
<g filter="url(#filter1_d_27_963)">
<path d="M85.8799 11.3628C85.8799 12.9371 85.6263 14.4162 85.1192 15.8002C84.6226 17.1842 83.9148 18.3887 82.9956 19.4135C82.0764 20.4383 80.9724 21.2466 79.6834 21.8382C78.405 22.4299 76.984 22.7257 75.4204 22.7257H63.9624V19.4769H75.4204C76.5403 19.4769 77.544 19.2656 78.4314 18.843C79.3295 18.4204 80.0849 17.8446 80.6977 17.1156C81.321 16.376 81.7964 15.515 82.124 14.5324C82.462 13.5393 82.6311 12.4827 82.6311 11.3628C82.6311 10.2429 82.462 9.1917 82.124 8.20914C81.7964 7.22658 81.321 6.3708 80.6977 5.6418C80.0849 4.90224 79.3295 4.32116 78.4314 3.89855C77.544 3.46538 76.5403 3.24879 75.4204 3.24879H62.346V22.7257H59.0972V0H75.4204C76.984 0 78.405 0.301107 79.6834 0.903322C80.9724 1.49497 82.0764 2.30849 82.9956 3.34388C83.9148 4.3687 84.6226 5.57313 85.1192 6.95717C85.6263 8.33064 85.8799 9.7992 85.8799 11.3628Z" fill="#050D41"/>
</g>
<g filter="url(#filter2_d_27_963)">
<path d="M55.0567 22.7257H31.5544V0H55.0567V3.24879H34.8032V19.4769H55.0567V22.7257ZM52.2992 12.9952H36.4197V9.74637H52.2992V12.9952Z" fill="#050D41"/>
</g>
<g filter="url(#filter3_d_27_963)">
<path d="M27.751 16.2281C27.751 17.1367 27.5767 17.9872 27.228 18.7796C26.89 19.5614 26.4251 20.2481 25.8334 20.8398C25.2523 21.4209 24.5656 21.8805 23.7732 22.2186C22.9808 22.5566 22.1409 22.7257 21.2534 22.7257H5.86526V19.4769H21.2534C21.6972 19.4769 22.1145 19.3924 22.5054 19.2233C22.9069 19.0543 23.2555 18.8219 23.5514 18.526C23.8472 18.2302 24.0796 17.8868 24.2487 17.4959C24.4177 17.0944 24.5022 16.6718 24.5022 16.2281C24.5022 15.7844 24.4177 15.367 24.2487 14.9761C24.0796 14.5852 23.8472 14.2419 23.5514 13.946C23.2555 13.6502 22.9069 13.4178 22.5054 13.2487C22.1145 13.0797 21.6972 12.9952 21.2534 12.9952H5.86526V9.74637H18.0046C18.4484 9.74637 18.8657 9.66185 19.2566 9.49281C19.6581 9.32376 20.0067 9.09133 20.3026 8.7955C20.5984 8.49968 20.8308 8.15631 20.9999 7.7654C21.1689 7.36392 21.2534 6.94132 21.2534 6.49758C21.2534 6.05384 21.1689 5.63652 20.9999 5.24561C20.8308 4.84413 20.5984 4.49548 20.3026 4.19966C20.0067 3.90383 19.6581 3.6714 19.2566 3.50235C18.8657 3.33331 18.4484 3.24879 18.0046 3.24879H4.24879V22.7257H1V0H18.0046C18.8921 0 19.732 0.174325 20.5244 0.522976C21.3168 0.861061 22.0036 1.32593 22.5846 1.91758C23.1763 2.49866 23.6412 3.1854 23.9792 3.97779C24.3279 4.77017 24.5022 5.61011 24.5022 6.49758C24.5022 7.18432 24.4019 7.83407 24.2011 8.44685C24.0004 9.04907 23.731 9.60902 23.3929 10.1267C24.0268 10.3486 24.6079 10.6603 25.1361 11.0617C25.675 11.4632 26.1345 11.9281 26.5149 12.4563C26.9058 12.9846 27.2069 13.571 27.4182 14.2154C27.6401 14.8493 27.751 15.5202 27.751 16.2281Z" fill="#050D41"/>
</g>
<path d="M177.24 13.5498V19.7622C177.24 20.2751 177.349 20.6405 177.567 20.8585C177.785 21.0636 178.163 21.1662 178.701 21.1662H179.99V22.6472H178.413C177.438 22.6472 176.707 22.4228 176.22 21.974C175.733 21.5252 175.489 20.788 175.489 19.7622V13.5498H174.124V12.1073H175.489V9.45312H177.24V12.1073H179.99V13.5498H177.24Z" fill="#050D41"/>
<path d="M172.794 16.9737C172.794 17.3071 172.775 17.6597 172.736 18.0315H164.312C164.376 19.0701 164.729 19.8843 165.37 20.4742C166.024 21.0512 166.812 21.3397 167.736 21.3397C168.492 21.3397 169.12 21.1666 169.621 20.8204C170.133 20.4613 170.492 19.9869 170.698 19.3971H172.582C172.3 20.41 171.736 21.2371 170.89 21.8782C170.044 22.5065 168.992 22.8206 167.736 22.8206C166.736 22.8206 165.838 22.5962 165.043 22.1475C164.261 21.6987 163.645 21.064 163.197 20.2434C162.748 19.4099 162.523 18.4483 162.523 17.3584C162.523 16.2685 162.741 15.3132 163.177 14.4926C163.613 13.672 164.222 13.0437 165.005 12.6077C165.8 12.159 166.71 11.9346 167.736 11.9346C168.736 11.9346 169.621 12.1525 170.39 12.5885C171.159 13.0245 171.749 13.6271 172.159 14.3964C172.582 15.1529 172.794 16.012 172.794 16.9737ZM170.986 16.6083C170.986 15.9415 170.839 15.3709 170.544 14.8965C170.249 14.4093 169.845 14.0438 169.332 13.8002C168.832 13.5438 168.274 13.4155 167.659 13.4155C166.774 13.4155 166.017 13.6976 165.389 14.2618C164.774 14.826 164.421 15.6081 164.331 16.6083H170.986Z" fill="#050D41"/>
<path d="M160.194 8.41455V22.6472H158.444V8.41455H160.194Z" fill="#050D41"/>
<path d="M155.461 8.41455V22.6472H153.711V8.41455H155.461Z" fill="#050D41"/>
<path d="M140.06 17.3391C140.06 16.2621 140.278 15.3196 140.714 14.5118C141.15 13.6912 141.746 13.0565 142.502 12.6077C143.272 12.159 144.124 11.9346 145.06 11.9346C145.984 11.9346 146.785 12.1333 147.465 12.5308C148.144 12.9283 148.651 13.4284 148.984 14.031V12.1077H150.754V22.6475H148.984V20.6857C148.638 21.3012 148.119 21.8141 147.426 22.2244C146.747 22.6219 145.952 22.8206 145.041 22.8206C144.105 22.8206 143.259 22.5898 142.502 22.1282C141.746 21.6666 141.15 21.0191 140.714 20.1857C140.278 19.3522 140.06 18.4034 140.06 17.3391ZM148.984 17.3584C148.984 16.5634 148.824 15.871 148.503 15.2812C148.183 14.6913 147.747 14.2426 147.195 13.9348C146.657 13.6143 146.061 13.454 145.407 13.454C144.753 13.454 144.157 13.6079 143.618 13.9156C143.079 14.2233 142.65 14.6721 142.329 15.2619C142.009 15.8518 141.849 16.5442 141.849 17.3391C141.849 18.1469 142.009 18.8522 142.329 19.4548C142.65 20.0446 143.079 20.4998 143.618 20.8204C144.157 21.1281 144.753 21.282 145.407 21.282C146.061 21.282 146.657 21.1281 147.195 20.8204C147.747 20.4998 148.183 20.0446 148.503 19.4548C148.824 18.8522 148.984 18.1533 148.984 17.3584Z" fill="#050D41"/>
<path d="M138.798 9.24219L134.913 22.6478H132.951L129.835 11.8579L126.604 22.6478L124.662 22.667L120.911 9.24219H122.777L125.7 20.6091L128.931 9.24219H130.893L133.971 20.5706L136.913 9.24219H138.798Z" fill="#050D41"/>
<defs>
<filter id="filter0_d_27_963" x="89.0325" y="0" width="28.228" height="24.7256" filterUnits="userSpaceOnUse" color-interpolation-filters="sRGB">
<feFlood flood-opacity="0" result="BackgroundImageFix"/>
<feColorMatrix in="SourceAlpha" type="matrix" values="0 0 0 0 0 0 0 0 0 0 0 0 0 0 0 0 0 0 127 0" result="hardAlpha"/>
<feOffset dy="1"/>
<feGaussianBlur stdDeviation="0.5"/>
<feComposite in2="hardAlpha" operator="out"/>
<feColorMatrix type="matrix" values="0 0 0 0 0 0 0 0 0 0 0 0 0 0 0 0 0 0 0.25 0"/>
<feBlend mode="normal" in2="BackgroundImageFix" result="effect1_dropShadow_27_963"/>
<feBlend mode="normal" in="SourceGraphic" in2="effect1_dropShadow_27_963" result="shape"/>
</filter>
<filter id="filter1_d_27_963" x="58.0972" y="0" width="28.7827" height="24.7256" filterUnits="userSpaceOnUse" color-interpolation-filters="sRGB">
<feFlood flood-opacity="0" result="BackgroundImageFix"/>
<feColorMatrix in="SourceAlpha" type="matrix" values="0 0 0 0 0 0 0 0 0 0 0 0 0 0 0 0 0 0 127 0" result="hardAlpha"/>
<feOffset dy="1"/>
<feGaussianBlur stdDeviation="0.5"/>
<feComposite in2="hardAlpha" operator="out"/>
<feColorMatrix type="matrix" values="0 0 0 0 0 0 0 0 0 0 0 0 0 0 0 0 0 0 0.25 0"/>
<feBlend mode="normal" in2="BackgroundImageFix" result="effect1_dropShadow_27_963"/>
<feBlend mode="normal" in="SourceGraphic" in2="effect1_dropShadow_27_963" result="shape"/>
</filter>
<filter id="filter2_d_27_963" x="30.5544" y="0" width="25.5022" height="24.7256" filterUnits="userSpaceOnUse" color-interpolation-filters="sRGB">
<feFlood flood-opacity="0" result="BackgroundImageFix"/>
<feColorMatrix in="SourceAlpha" type="matrix" values="0 0 0 0 0 0 0 0 0 0 0 0 0 0 0 0 0 0 127 0" result="hardAlpha"/>
<feOffset dy="1"/>
<feGaussianBlur stdDeviation="0.5"/>
<feComposite in2="hardAlpha" operator="out"/>
<feColorMatrix type="matrix" values="0 0 0 0 0 0 0 0 0 0 0 0 0 0 0 0 0 0 0.25 0"/>
<feBlend mode="normal" in2="BackgroundImageFix" result="effect1_dropShadow_27_963"/>
<feBlend mode="normal" in="SourceGraphic" in2="effect1_dropShadow_27_963" result="shape"/>
</filter>
<filter id="filter3_d_27_963" x="0" y="0" width="28.751" height="24.7256" filterUnits="userSpaceOnUse" color-interpolation-filters="sRGB">
<feFlood flood-opacity="0" result="BackgroundImageFix"/>
<feColorMatrix in="SourceAlpha" type="matrix" values="0 0 0 0 0 0 0 0 0 0 0 0 0 0 0 0 0 0 127 0" result="hardAlpha"/>
<feOffset dy="1"/>
<feGaussianBlur stdDeviation="0.5"/>
<feComposite in2="hardAlpha" operator="out"/>
<feColorMatrix type="matrix" values="0 0 0 0 0 0 0 0 0 0 0 0 0 0 0 0 0 0 0.25 0"/>
<feBlend mode="normal" in2="BackgroundImageFix" result="effect1_dropShadow_27_963"/>
<feBlend mode="normal" in="SourceGraphic" in2="effect1_dropShadow_27_963" result="shape"/>
</filter>
</defs>
</svg>
