<svg width="42" height="42" viewBox="0 0 42 42" fill="none" xmlns="http://www.w3.org/2000/svg">
<circle cx="21" cy="21" r="21" fill="#EED441"/>
<path d="M19 30.2H16.6C14.6118 30.2 13 28.5882 13 26.6V14.6C13 12.6118 14.6118 11 16.6 11H25C26.9882 11 28.6 12.6118 28.6 14.6V17.6M24.4 23.6V22.4C24.4 21.4059 25.2059 20.6 26.2 20.6C27.1941 20.6 28 21.4059 28 22.4V24.2M24.4 15.8H16.6M20.8 19.4H16.6M19 23H16.6M23.8 30.2H28.6C29.2627 30.2 29.8 29.6627 29.8 29V25.4C29.8 24.7373 29.2627 24.2 28.6 24.2H23.8C23.1373 24.2 22.6 24.7373 22.6 25.4V29C22.6 29.6627 23.1373 30.2 23.8 30.2Z" stroke="#0B0F27" stroke-width="1.5" stroke-linecap="round" stroke-linejoin="round"/>
</svg>