<svg width="214" height="42" viewBox="0 0 214 42" fill="none" xmlns="http://www.w3.org/2000/svg">
<rect width="214" height="42" rx="21" fill="#0B0F27"/>
<path d="M95.2827 19.168C95.2827 19.6627 95.166 20.1293 94.9327 20.568C94.6994 21.0067 94.326 21.366 93.8127 21.646C93.2994 21.9167 92.6414 22.052 91.8387 22.052H90.0747V26H88.4787V16.27H91.8387C92.5854 16.27 93.2154 16.4007 93.7287 16.662C94.2514 16.914 94.6387 17.2593 94.8907 17.698C95.152 18.1367 95.2827 18.6267 95.2827 19.168ZM91.8387 20.75C92.4454 20.75 92.898 20.6147 93.1967 20.344C93.4954 20.064 93.6447 19.672 93.6447 19.168C93.6447 18.104 93.0427 17.572 91.8387 17.572H90.0747V20.75H91.8387ZM96.2729 22.108C96.2729 21.3333 96.4315 20.6473 96.7489 20.05C97.0755 19.4527 97.5142 18.9907 98.0649 18.664C98.6249 18.328 99.2409 18.16 99.9129 18.16C100.52 18.16 101.047 18.2813 101.495 18.524C101.952 18.7573 102.316 19.0513 102.587 19.406V18.286H104.197V26H102.587V24.852C102.316 25.216 101.948 25.5193 101.481 25.762C101.014 26.0047 100.482 26.126 99.8849 26.126C99.2222 26.126 98.6155 25.958 98.0649 25.622C97.5142 25.2767 97.0755 24.8007 96.7489 24.194C96.4315 23.578 96.2729 22.8827 96.2729 22.108ZM102.587 22.136C102.587 21.604 102.475 21.142 102.251 20.75C102.036 20.358 101.752 20.0593 101.397 19.854C101.042 19.6487 100.66 19.546 100.249 19.546C99.8382 19.546 99.4555 19.6487 99.1009 19.854C98.7462 20.05 98.4569 20.344 98.2329 20.736C98.0182 21.1187 97.9109 21.576 97.9109 22.108C97.9109 22.64 98.0182 23.1067 98.2329 23.508C98.4569 23.9093 98.7462 24.2173 99.1009 24.432C99.4649 24.6373 99.8475 24.74 100.249 24.74C100.66 24.74 101.042 24.6373 101.397 24.432C101.752 24.2267 102.036 23.928 102.251 23.536C102.475 23.1347 102.587 22.668 102.587 22.136ZM109.093 26.126C108.486 26.126 107.94 26.0187 107.455 25.804C106.979 25.58 106.601 25.2813 106.321 24.908C106.041 24.5253 105.892 24.1007 105.873 23.634H107.525C107.553 23.9607 107.707 24.236 107.987 24.46C108.276 24.6747 108.636 24.782 109.065 24.782C109.513 24.782 109.858 24.698 110.101 24.53C110.353 24.3527 110.479 24.1287 110.479 23.858C110.479 23.5687 110.339 23.354 110.059 23.214C109.788 23.074 109.354 22.92 108.757 22.752C108.178 22.5933 107.707 22.4393 107.343 22.29C106.979 22.1407 106.662 21.912 106.391 21.604C106.13 21.296 105.999 20.89 105.999 20.386C105.999 19.9753 106.12 19.602 106.363 19.266C106.606 18.9207 106.951 18.65 107.399 18.454C107.856 18.258 108.379 18.16 108.967 18.16C109.844 18.16 110.549 18.384 111.081 18.832C111.622 19.2707 111.912 19.8727 111.949 20.638H110.353C110.325 20.2927 110.185 20.0173 109.933 19.812C109.681 19.6067 109.34 19.504 108.911 19.504C108.491 19.504 108.169 19.5833 107.945 19.742C107.721 19.9007 107.609 20.1107 107.609 20.372C107.609 20.5773 107.684 20.75 107.833 20.89C107.982 21.03 108.164 21.142 108.379 21.226C108.594 21.3007 108.911 21.3987 109.331 21.52C109.891 21.6693 110.348 21.8233 110.703 21.982C111.067 22.1313 111.38 22.3553 111.641 22.654C111.902 22.9527 112.038 23.3493 112.047 23.844C112.047 24.2827 111.926 24.6747 111.683 25.02C111.44 25.3653 111.095 25.636 110.647 25.832C110.208 26.028 109.69 26.126 109.093 26.126ZM115.634 19.588V23.858C115.634 24.1473 115.699 24.3573 115.83 24.488C115.97 24.6093 116.203 24.67 116.53 24.67H117.51V26H116.25C115.531 26 114.98 25.832 114.598 25.496C114.215 25.16 114.024 24.614 114.024 23.858V19.588H113.114V18.286H114.024V16.368H115.634V18.286H117.51V19.588H115.634ZM126.051 21.954C126.051 22.2433 126.032 22.5047 125.995 22.738H120.101C120.147 23.354 120.376 23.8487 120.787 24.222C121.197 24.5953 121.701 24.782 122.299 24.782C123.157 24.782 123.764 24.4227 124.119 23.704H125.841C125.607 24.4133 125.183 24.9967 124.567 25.454C123.96 25.902 123.204 26.126 122.299 26.126C121.561 26.126 120.899 25.9627 120.311 25.636C119.732 25.3 119.275 24.8333 118.939 24.236C118.612 23.6293 118.449 22.9293 118.449 22.136C118.449 21.3427 118.607 20.6473 118.925 20.05C119.251 19.4433 119.704 18.9767 120.283 18.65C120.871 18.3233 121.543 18.16 122.299 18.16C123.027 18.16 123.675 18.3187 124.245 18.636C124.814 18.9533 125.257 19.4013 125.575 19.98C125.892 20.5493 126.051 21.2073 126.051 21.954ZM124.385 21.45C124.375 20.862 124.165 20.3907 123.755 20.036C123.344 19.6813 122.835 19.504 122.229 19.504C121.678 19.504 121.207 19.6813 120.815 20.036C120.423 20.3813 120.189 20.8527 120.115 21.45H124.385Z" fill="white"/>
<path d="M27.0115 16.4526L23.8529 16.4526C22.6733 16.4526 21.5315 16.916 20.6943 17.7656C19.8571 18.6153 19.3814 19.7545 19.4005 20.971C19.3813 22.1875 19.8572 23.3269 20.6943 24.1764C21.5505 25.0453 22.6541 25.5088 23.8338 25.5088H26.9924M30.9883 25.5474H34.1469C35.3265 25.5474 36.4683 25.084 37.3055 24.2344C38.1428 23.3847 38.6184 22.2455 38.5993 21.029C38.5993 19.8319 38.1237 18.6926 37.2864 17.843C36.4492 16.9933 35.3266 16.5106 34.1469 16.5106H30.9883M24.2523 20.9578L33.7281 20.9578" stroke="white" stroke-width="2" stroke-linecap="round" stroke-linejoin="round"/>
</svg>