<svg width="322" height="50" viewBox="0 0 322 50" fill="none" xmlns="http://www.w3.org/2000/svg">
<g filter="url(#filter0_d_0_1)">
<rect x="4" y="2" width="314" height="42" rx="21" fill="#EED441"/>
</g>
<path d="M111.649 23.114C111.649 22.162 111.868 21.308 112.307 20.552C112.755 19.796 113.357 19.208 114.113 18.788C114.878 18.3587 115.714 18.144 116.619 18.144C117.655 18.144 118.574 18.4007 119.377 18.914C120.189 19.418 120.777 20.1367 121.141 21.07H119.223C118.971 20.5567 118.621 20.174 118.173 19.922C117.725 19.67 117.207 19.544 116.619 19.544C115.975 19.544 115.401 19.6887 114.897 19.978C114.393 20.2673 113.996 20.6827 113.707 21.224C113.427 21.7653 113.287 22.3953 113.287 23.114C113.287 23.8327 113.427 24.4627 113.707 25.004C113.996 25.5453 114.393 25.9653 114.897 26.264C115.401 26.5533 115.975 26.698 116.619 26.698C117.207 26.698 117.725 26.572 118.173 26.32C118.621 26.068 118.971 25.6853 119.223 25.172H121.141C120.777 26.1053 120.189 26.824 119.377 27.328C118.574 27.832 117.655 28.084 116.619 28.084C115.704 28.084 114.869 27.874 114.113 27.454C113.357 27.0247 112.755 26.432 112.307 25.676C111.868 24.92 111.649 24.066 111.649 23.114ZM126.355 28.126C125.627 28.126 124.969 27.9627 124.381 27.636C123.793 27.3 123.331 26.8333 122.995 26.236C122.659 25.6293 122.491 24.9293 122.491 24.136C122.491 23.352 122.664 22.6567 123.009 22.05C123.354 21.4433 123.826 20.9767 124.423 20.65C125.02 20.3233 125.688 20.16 126.425 20.16C127.162 20.16 127.83 20.3233 128.427 20.65C129.024 20.9767 129.496 21.4433 129.841 22.05C130.186 22.6567 130.359 23.352 130.359 24.136C130.359 24.92 130.182 25.6153 129.827 26.222C129.472 26.8287 128.987 27.3 128.371 27.636C127.764 27.9627 127.092 28.126 126.355 28.126ZM126.355 26.74C126.766 26.74 127.148 26.642 127.503 26.446C127.867 26.25 128.161 25.956 128.385 25.564C128.609 25.172 128.721 24.696 128.721 24.136C128.721 23.576 128.614 23.1047 128.399 22.722C128.184 22.33 127.9 22.036 127.545 21.84C127.19 21.644 126.808 21.546 126.397 21.546C125.986 21.546 125.604 21.644 125.249 21.84C124.904 22.036 124.628 22.33 124.423 22.722C124.218 23.1047 124.115 23.576 124.115 24.136C124.115 24.9667 124.325 25.6107 124.745 26.068C125.174 26.516 125.711 26.74 126.355 26.74ZM133.533 21.42C133.803 21.0653 134.172 20.7667 134.639 20.524C135.105 20.2813 135.633 20.16 136.221 20.16C136.893 20.16 137.504 20.328 138.055 20.664C138.615 20.9907 139.053 21.4527 139.371 22.05C139.688 22.6473 139.847 23.3333 139.847 24.108C139.847 24.8827 139.688 25.578 139.371 26.194C139.053 26.8007 138.615 27.2767 138.055 27.622C137.504 27.958 136.893 28.126 136.221 28.126C135.633 28.126 135.11 28.0093 134.653 27.776C134.195 27.5333 133.822 27.2347 133.533 26.88V31.668H131.937V20.286H133.533V21.42ZM138.223 24.108C138.223 23.576 138.111 23.1187 137.887 22.736C137.672 22.344 137.383 22.05 137.019 21.854C136.664 21.6487 136.281 21.546 135.871 21.546C135.469 21.546 135.087 21.6487 134.723 21.854C134.368 22.0593 134.079 22.358 133.855 22.75C133.64 23.142 133.533 23.604 133.533 24.136C133.533 24.668 133.64 25.1347 133.855 25.536C134.079 25.928 134.368 26.2267 134.723 26.432C135.087 26.6373 135.469 26.74 135.871 26.74C136.281 26.74 136.664 26.6373 137.019 26.432C137.383 26.2173 137.672 25.9093 137.887 25.508C138.111 25.1067 138.223 24.64 138.223 24.108ZM148.369 20.286L143.637 31.626H141.985L143.553 27.874L140.515 20.286H142.293L144.463 26.166L146.717 20.286H148.369ZM159.076 26.012H155.002L154.302 28H152.636L156.122 18.256H157.97L161.456 28H159.776L159.076 26.012ZM158.628 24.71L157.046 20.188L155.45 24.71H158.628ZM162.44 24.108C162.44 23.3333 162.599 22.6473 162.916 22.05C163.243 21.4527 163.681 20.9907 164.232 20.664C164.792 20.328 165.413 20.16 166.094 20.16C166.598 20.16 167.093 20.272 167.578 20.496C168.073 20.7107 168.465 21 168.754 21.364V17.64H170.364V28H168.754V26.838C168.493 27.2113 168.129 27.5193 167.662 27.762C167.205 28.0047 166.677 28.126 166.08 28.126C165.408 28.126 164.792 27.958 164.232 27.622C163.681 27.2767 163.243 26.8007 162.916 26.194C162.599 25.578 162.44 24.8827 162.44 24.108ZM168.754 24.136C168.754 23.604 168.642 23.142 168.418 22.75C168.203 22.358 167.919 22.0593 167.564 21.854C167.209 21.6487 166.827 21.546 166.416 21.546C166.005 21.546 165.623 21.6487 165.268 21.854C164.913 22.05 164.624 22.344 164.4 22.736C164.185 23.1187 164.078 23.576 164.078 24.108C164.078 24.64 164.185 25.1067 164.4 25.508C164.624 25.9093 164.913 26.2173 165.268 26.432C165.632 26.6373 166.015 26.74 166.416 26.74C166.827 26.74 167.209 26.6373 167.564 26.432C167.919 26.2267 168.203 25.928 168.418 25.536C168.642 25.1347 168.754 24.668 168.754 24.136ZM171.928 24.108C171.928 23.3333 172.087 22.6473 172.404 22.05C172.731 21.4527 173.169 20.9907 173.72 20.664C174.28 20.328 174.901 20.16 175.582 20.16C176.086 20.16 176.581 20.272 177.066 20.496C177.561 20.7107 177.953 21 178.242 21.364V17.64H179.852V28H178.242V26.838C177.981 27.2113 177.617 27.5193 177.15 27.762C176.693 28.0047 176.165 28.126 175.568 28.126C174.896 28.126 174.28 27.958 173.72 27.622C173.169 27.2767 172.731 26.8007 172.404 26.194C172.087 25.578 171.928 24.8827 171.928 24.108ZM178.242 24.136C178.242 23.604 178.13 23.142 177.906 22.75C177.691 22.358 177.407 22.0593 177.052 21.854C176.697 21.6487 176.315 21.546 175.904 21.546C175.493 21.546 175.111 21.6487 174.756 21.854C174.401 22.05 174.112 22.344 173.888 22.736C173.673 23.1187 173.566 23.576 173.566 24.108C173.566 24.64 173.673 25.1067 173.888 25.508C174.112 25.9093 174.401 26.2173 174.756 26.432C175.12 26.6373 175.503 26.74 175.904 26.74C176.315 26.74 176.697 26.6373 177.052 26.432C177.407 26.2267 177.691 25.928 177.906 25.536C178.13 25.1347 178.242 24.668 178.242 24.136ZM183.544 21.406C183.778 21.014 184.086 20.7107 184.468 20.496C184.86 20.272 185.322 20.16 185.854 20.16V21.812H185.448C184.823 21.812 184.347 21.9707 184.02 22.288C183.703 22.6053 183.544 23.156 183.544 23.94V28H181.948V20.286H183.544V21.406ZM194.391 23.954C194.391 24.2433 194.373 24.5047 194.335 24.738H188.441C188.488 25.354 188.717 25.8487 189.127 26.222C189.538 26.5953 190.042 26.782 190.639 26.782C191.498 26.782 192.105 26.4227 192.459 25.704H194.181C193.948 26.4133 193.523 26.9967 192.907 27.454C192.301 27.902 191.545 28.126 190.639 28.126C189.902 28.126 189.239 27.9627 188.651 27.636C188.073 27.3 187.615 26.8333 187.279 26.236C186.953 25.6293 186.789 24.9293 186.789 24.136C186.789 23.3427 186.948 22.6473 187.265 22.05C187.592 21.4433 188.045 20.9767 188.623 20.65C189.211 20.3233 189.883 20.16 190.639 20.16C191.367 20.16 192.016 20.3187 192.585 20.636C193.155 20.9533 193.598 21.4013 193.915 21.98C194.233 22.5493 194.391 23.2073 194.391 23.954ZM192.725 23.45C192.716 22.862 192.506 22.3907 192.095 22.036C191.685 21.6813 191.176 21.504 190.569 21.504C190.019 21.504 189.547 21.6813 189.155 22.036C188.763 22.3813 188.53 22.8527 188.455 23.45H192.725ZM198.762 28.126C198.155 28.126 197.609 28.0187 197.124 27.804C196.648 27.58 196.27 27.2813 195.99 26.908C195.71 26.5253 195.561 26.1007 195.542 25.634H197.194C197.222 25.9607 197.376 26.236 197.656 26.46C197.945 26.6747 198.305 26.782 198.734 26.782C199.182 26.782 199.527 26.698 199.77 26.53C200.022 26.3527 200.148 26.1287 200.148 25.858C200.148 25.5687 200.008 25.354 199.728 25.214C199.457 25.074 199.023 24.92 198.426 24.752C197.847 24.5933 197.376 24.4393 197.012 24.29C196.648 24.1407 196.331 23.912 196.06 23.604C195.799 23.296 195.668 22.89 195.668 22.386C195.668 21.9753 195.789 21.602 196.032 21.266C196.275 20.9207 196.62 20.65 197.068 20.454C197.525 20.258 198.048 20.16 198.636 20.16C199.513 20.16 200.218 20.384 200.75 20.832C201.291 21.2707 201.581 21.8727 201.618 22.638H200.022C199.994 22.2927 199.854 22.0173 199.602 21.812C199.35 21.6067 199.009 21.504 198.58 21.504C198.16 21.504 197.838 21.5833 197.614 21.742C197.39 21.9007 197.278 22.1107 197.278 22.372C197.278 22.5773 197.353 22.75 197.502 22.89C197.651 23.03 197.833 23.142 198.048 23.226C198.263 23.3007 198.58 23.3987 199 23.52C199.56 23.6693 200.017 23.8233 200.372 23.982C200.736 24.1313 201.049 24.3553 201.31 24.654C201.571 24.9527 201.707 25.3493 201.716 25.844C201.716 26.2827 201.595 26.6747 201.352 27.02C201.109 27.3653 200.764 27.636 200.316 27.832C199.877 28.028 199.359 28.126 198.762 28.126ZM206.241 28.126C205.634 28.126 205.088 28.0187 204.603 27.804C204.127 27.58 203.749 27.2813 203.469 26.908C203.189 26.5253 203.039 26.1007 203.021 25.634H204.673C204.701 25.9607 204.855 26.236 205.135 26.46C205.424 26.6747 205.783 26.782 206.213 26.782C206.661 26.782 207.006 26.698 207.249 26.53C207.501 26.3527 207.627 26.1287 207.627 25.858C207.627 25.5687 207.487 25.354 207.207 25.214C206.936 25.074 206.502 24.92 205.905 24.752C205.326 24.5933 204.855 24.4393 204.491 24.29C204.127 24.1407 203.809 23.912 203.539 23.604C203.277 23.296 203.147 22.89 203.147 22.386C203.147 21.9753 203.268 21.602 203.511 21.266C203.753 20.9207 204.099 20.65 204.547 20.454C205.004 20.258 205.527 20.16 206.115 20.16C206.992 20.16 207.697 20.384 208.229 20.832C208.77 21.2707 209.059 21.8727 209.097 22.638H207.501C207.473 22.2927 207.333 22.0173 207.081 21.812C206.829 21.6067 206.488 21.504 206.059 21.504C205.639 21.504 205.317 21.5833 205.093 21.742C204.869 21.9007 204.757 22.1107 204.757 22.372C204.757 22.5773 204.831 22.75 204.981 22.89C205.13 23.03 205.312 23.142 205.527 23.226C205.741 23.3007 206.059 23.3987 206.479 23.52C207.039 23.6693 207.496 23.8233 207.851 23.982C208.215 24.1313 208.527 24.3553 208.789 24.654C209.05 24.9527 209.185 25.3493 209.195 25.844C209.195 26.2827 209.073 26.6747 208.831 27.02C208.588 27.3653 208.243 27.636 207.795 27.832C207.356 28.028 206.838 28.126 206.241 28.126Z" fill="#0B0F27"/>
<path d="M40.0115 18.4526L36.8529 18.4526C35.6733 18.4526 34.5315 18.916 33.6943 19.7656C32.8571 20.6153 32.3814 21.7545 32.4005 22.971C32.3813 24.1875 32.8572 25.3269 33.6943 26.1764C34.5505 27.0453 35.6541 27.5088 36.8338 27.5088H39.9924M43.9883 27.5474H47.1469C48.3265 27.5474 49.4683 27.084 50.3055 26.2344C51.1428 25.3847 51.6184 24.2455 51.5993 23.029C51.5993 21.8319 51.1237 20.6926 50.2864 19.843C49.4492 18.9933 48.3266 18.5106 47.1469 18.5106H43.9883M37.2523 22.9578L46.7281 22.9578" stroke="#0B0F27" stroke-width="2" stroke-linecap="round" stroke-linejoin="round"/>
<defs>
<filter id="filter0_d_0_1" x="0" y="0" width="322" height="50" filterUnits="userSpaceOnUse" color-interpolation-filters="sRGB">
<feFlood flood-opacity="0" result="BackgroundImageFix"/>
<feColorMatrix in="SourceAlpha" type="matrix" values="0 0 0 0 0 0 0 0 0 0 0 0 0 0 0 0 0 0 127 0" result="hardAlpha"/>
<feOffset dy="2"/>
<feGaussianBlur stdDeviation="2"/>
<feComposite in2="hardAlpha" operator="out"/>
<feColorMatrix type="matrix" values="0 0 0 0 0.353889 0 0 0 0 0.4466 0 0 0 0 0.933333 0 0 0 0.25 0"/>
<feBlend mode="normal" in2="BackgroundImageFix" result="effect1_dropShadow_0_1"/>
<feBlend mode="normal" in="SourceGraphic" in2="effect1_dropShadow_0_1" result="shape"/>
</filter>
</defs>
</svg>