<svg width="322" height="50" viewBox="0 0 322 50" fill="none" xmlns="http://www.w3.org/2000/svg">
<g filter="url(#filter0_d_0_1)">
<rect x="4" y="2" width="314" height="42" rx="21" fill="#EED441"/>
</g>
<path d="M127.679 23.114C127.679 22.162 127.898 21.308 128.337 20.552C128.785 19.796 129.387 19.208 130.143 18.788C130.908 18.3587 131.744 18.144 132.649 18.144C133.685 18.144 134.604 18.4007 135.407 18.914C136.219 19.418 136.807 20.1367 137.171 21.07H135.253C135.001 20.5567 134.651 20.174 134.203 19.922C133.755 19.67 133.237 19.544 132.649 19.544C132.005 19.544 131.431 19.6887 130.927 19.978C130.423 20.2673 130.026 20.6827 129.737 21.224C129.457 21.7653 129.317 22.3953 129.317 23.114C129.317 23.8327 129.457 24.4627 129.737 25.004C130.026 25.5453 130.423 25.9653 130.927 26.264C131.431 26.5533 132.005 26.698 132.649 26.698C133.237 26.698 133.755 26.572 134.203 26.32C134.651 26.068 135.001 25.6853 135.253 25.172H137.171C136.807 26.1053 136.219 26.824 135.407 27.328C134.604 27.832 133.685 28.084 132.649 28.084C131.734 28.084 130.899 27.874 130.143 27.454C129.387 27.0247 128.785 26.432 128.337 25.676C127.898 24.92 127.679 24.066 127.679 23.114ZM142.385 28.126C141.657 28.126 140.999 27.9627 140.411 27.636C139.823 27.3 139.361 26.8333 139.025 26.236C138.689 25.6293 138.521 24.9293 138.521 24.136C138.521 23.352 138.694 22.6567 139.039 22.05C139.385 21.4433 139.856 20.9767 140.453 20.65C141.051 20.3233 141.718 20.16 142.455 20.16C143.193 20.16 143.86 20.3233 144.457 20.65C145.055 20.9767 145.526 21.4433 145.871 22.05C146.217 22.6567 146.389 23.352 146.389 24.136C146.389 24.92 146.212 25.6153 145.857 26.222C145.503 26.8287 145.017 27.3 144.401 27.636C143.795 27.9627 143.123 28.126 142.385 28.126ZM142.385 26.74C142.796 26.74 143.179 26.642 143.533 26.446C143.897 26.25 144.191 25.956 144.415 25.564C144.639 25.172 144.751 24.696 144.751 24.136C144.751 23.576 144.644 23.1047 144.429 22.722C144.215 22.33 143.93 22.036 143.575 21.84C143.221 21.644 142.838 21.546 142.427 21.546C142.017 21.546 141.634 21.644 141.279 21.84C140.934 22.036 140.659 22.33 140.453 22.722C140.248 23.1047 140.145 23.576 140.145 24.136C140.145 24.9667 140.355 25.6107 140.775 26.068C141.205 26.516 141.741 26.74 142.385 26.74ZM149.563 21.42C149.834 21.0653 150.202 20.7667 150.669 20.524C151.136 20.2813 151.663 20.16 152.251 20.16C152.923 20.16 153.534 20.328 154.085 20.664C154.645 20.9907 155.084 21.4527 155.401 22.05C155.718 22.6473 155.877 23.3333 155.877 24.108C155.877 24.8827 155.718 25.578 155.401 26.194C155.084 26.8007 154.645 27.2767 154.085 27.622C153.534 27.958 152.923 28.126 152.251 28.126C151.663 28.126 151.14 28.0093 150.683 27.776C150.226 27.5333 149.852 27.2347 149.563 26.88V31.668H147.967V20.286H149.563V21.42ZM154.253 24.108C154.253 23.576 154.141 23.1187 153.917 22.736C153.702 22.344 153.413 22.05 153.049 21.854C152.694 21.6487 152.312 21.546 151.901 21.546C151.5 21.546 151.117 21.6487 150.753 21.854C150.398 22.0593 150.109 22.358 149.885 22.75C149.67 23.142 149.563 23.604 149.563 24.136C149.563 24.668 149.67 25.1347 149.885 25.536C150.109 25.928 150.398 26.2267 150.753 26.432C151.117 26.6373 151.5 26.74 151.901 26.74C152.312 26.74 152.694 26.6373 153.049 26.432C153.413 26.2173 153.702 25.9093 153.917 25.508C154.141 25.1067 154.253 24.64 154.253 24.108ZM164.399 20.286L159.667 31.626H158.015L159.583 27.874L156.545 20.286H158.323L160.493 26.166L162.747 20.286H164.399ZM174.602 28L170.836 23.646V28H169.24V18.27H170.836V22.708L174.616 18.27H176.618L172.39 23.142L176.688 28H174.602ZM185.17 23.954C185.17 24.2433 185.151 24.5047 185.114 24.738H179.22C179.266 25.354 179.495 25.8487 179.906 26.222C180.316 26.5953 180.82 26.782 181.418 26.782C182.276 26.782 182.883 26.4227 183.238 25.704H184.96C184.726 26.4133 184.302 26.9967 183.686 27.454C183.079 27.902 182.323 28.126 181.418 28.126C180.68 28.126 180.018 27.9627 179.43 27.636C178.851 27.3 178.394 26.8333 178.058 26.236C177.731 25.6293 177.568 24.9293 177.568 24.136C177.568 23.3427 177.726 22.6473 178.044 22.05C178.37 21.4433 178.823 20.9767 179.402 20.65C179.99 20.3233 180.662 20.16 181.418 20.16C182.146 20.16 182.794 20.3187 183.364 20.636C183.933 20.9533 184.376 21.4013 184.694 21.98C185.011 22.5493 185.17 23.2073 185.17 23.954ZM183.504 23.45C183.494 22.862 183.284 22.3907 182.874 22.036C182.463 21.6813 181.954 21.504 181.348 21.504C180.797 21.504 180.326 21.6813 179.934 22.036C179.542 22.3813 179.308 22.8527 179.234 23.45H183.504ZM193.684 20.286L188.952 31.626H187.3L188.868 27.874L185.83 20.286H187.608L189.778 26.166L192.032 20.286H193.684Z" fill="#0B0F27"/>
<path d="M40.0115 18.4526L36.8529 18.4526C35.6733 18.4526 34.5315 18.916 33.6943 19.7656C32.8571 20.6153 32.3814 21.7545 32.4005 22.971C32.3813 24.1875 32.8572 25.3269 33.6943 26.1764C34.5505 27.0453 35.6541 27.5088 36.8338 27.5088H39.9924M43.9883 27.5474H47.1469C48.3265 27.5474 49.4683 27.084 50.3055 26.2344C51.1428 25.3847 51.6184 24.2455 51.5993 23.029C51.5993 21.8319 51.1237 20.6926 50.2864 19.843C49.4492 18.9933 48.3266 18.5106 47.1469 18.5106H43.9883M37.2523 22.9578L46.7281 22.9578" stroke="#0B0F27" stroke-width="2" stroke-linecap="round" stroke-linejoin="round"/>
<defs>
<filter id="filter0_d_0_1" x="0" y="0" width="322" height="50" filterUnits="userSpaceOnUse" color-interpolation-filters="sRGB">
<feFlood flood-opacity="0" result="BackgroundImageFix"/>
<feColorMatrix in="SourceAlpha" type="matrix" values="0 0 0 0 0 0 0 0 0 0 0 0 0 0 0 0 0 0 127 0" result="hardAlpha"/>
<feOffset dy="2"/>
<feGaussianBlur stdDeviation="2"/>
<feComposite in2="hardAlpha" operator="out"/>
<feColorMatrix type="matrix" values="0 0 0 0 0.353889 0 0 0 0 0.4466 0 0 0 0 0.933333 0 0 0 0.25 0"/>
<feBlend mode="normal" in2="BackgroundImageFix" result="effect1_dropShadow_0_1"/>
<feBlend mode="normal" in="SourceGraphic" in2="effect1_dropShadow_0_1" result="shape"/>
</filter>
</defs>
</svg>