<svg width="42" height="42" viewBox="0 0 42 42" fill="none" xmlns="http://www.w3.org/2000/svg">
<circle cx="21" cy="21" r="21" fill="#EED441"/>
<path d="M22.2391 16.5424C21.9739 16.2242 21.501 16.1812 21.1828 16.4464C20.8646 16.7115 20.8216 17.1845 21.0868 17.5027L22.2391 16.5424ZM24.9775 21L25.5537 21.4802C25.7855 21.202 25.7855 20.798 25.5537 20.5199L24.9775 21ZM21.0868 24.4974C20.8216 24.8156 20.8646 25.2885 21.1828 25.5537C21.501 25.8189 21.9739 25.7759 22.2391 25.4577L21.0868 24.4974ZM17.0225 20.25C16.6083 20.25 16.2725 20.5858 16.2725 21C16.2725 21.4142 16.6083 21.75 17.0225 21.75L17.0225 20.25ZM21.0868 17.5027L24.4014 21.4802L25.5537 20.5199L22.2391 16.5424L21.0868 17.5027ZM24.4014 20.5199L21.0868 24.4974L22.2391 25.4577L25.5537 21.4802L24.4014 20.5199ZM24.9775 20.25L17.0225 20.25L17.0225 21.75L24.9775 21.75V20.25ZM26.8336 15.1664C30.0555 18.3882 30.0555 23.6118 26.8336 26.8336L27.8943 27.8943C31.7019 24.0867 31.7019 17.9133 27.8943 14.1057L26.8336 15.1664ZM26.8336 26.8336C23.6118 30.0555 18.3882 30.0555 15.1664 26.8336L14.1057 27.8943C17.9133 31.7019 24.0867 31.7019 27.8943 27.8943L26.8336 26.8336ZM15.1664 26.8336C11.9445 23.6118 11.9445 18.3882 15.1664 15.1664L14.1057 14.1057C10.2981 17.9133 10.2981 24.0867 14.1057 27.8943L15.1664 26.8336ZM15.1664 15.1664C18.3882 11.9445 23.6118 11.9445 26.8336 15.1664L27.8943 14.1057C24.0867 10.2981 17.9133 10.2981 14.1057 14.1057L15.1664 15.1664Z" fill="#0B0F27"/>
</svg>