<svg width="50" height="28" viewBox="0 0 50 28" fill="none" xmlns="http://www.w3.org/2000/svg">
<rect width="50" height="28" rx="6" fill="#F93968"/>
<path d="M17.47 13.4199L15.73 11.6799L14 13.4199" stroke="white" stroke-width="1.5" stroke-linecap="round" stroke-linejoin="round"/>
<path d="M32.53 14.5801L34.27 16.3201L36.01 14.5801" stroke="white" stroke-width="1.5" stroke-linecap="round" stroke-linejoin="round"/>
<path d="M34.26 16.32V14C34.26 8.88 30.11 4.73999 25 4.73999C22.08 4.73999 19.47 6.10002 17.77 8.21002" stroke="white" stroke-width="1.5" stroke-linecap="round" stroke-linejoin="round"/>
<path d="M15.74 11.6799V13.9999C15.74 19.1199 19.89 23.2599 25 23.2599C27.92 23.2599 30.53 21.8999 32.23 19.7899" stroke="white" stroke-width="1.5" stroke-linecap="round" stroke-linejoin="round"/>
<path d="M22 16.3298C22 17.6198 22.99 18.6598 24.22 18.6598H26.73C27.8 18.6598 28.67 17.7498 28.67 16.6298C28.67 15.4098 28.14 14.9798 27.35 14.6998L23.32 13.2998C22.53 13.0198 22 12.5898 22 11.3698C22 10.2498 22.87 9.33984 23.94 9.33984H26.45C27.68 9.33984 28.67 10.3798 28.67 11.6698" stroke="white" stroke-width="1.5" stroke-linecap="round" stroke-linejoin="round"/>
<path d="M25.3281 8V20" stroke="white" stroke-width="1.5" stroke-linecap="round" stroke-linejoin="round"/>
</svg>