<svg width="136" height="32" viewBox="0 0 136 32" fill="none" xmlns="http://www.w3.org/2000/svg">
<path d="M78.5061 9.12453C78.5061 13.2848 75.6319 16.8548 69.8834 19.8344C66.0464 21.8443 61.4786 23.3692 56.1798 24.4093L53.6078 31.746H45.9127L53.6078 10.1154H61.2396L57.6134 20.256C60.3401 19.6376 62.7576 18.6749 64.8658 17.3678C67.8033 15.5266 69.3282 13.3832 69.4407 10.9376C69.511 9.36347 68.9839 8.33043 67.8595 7.83851C67.1849 7.54335 65.9691 7.39578 64.2122 7.39578H42.666L45.9549 2.08301H67.6698C70.8462 2.08301 73.2707 2.47655 74.9432 3.26362C77.3185 4.37396 78.5061 6.3276 78.5061 9.12453Z" fill="#0B0F27"/>
<path d="M15.5771 7.35919C14.7881 5.38719 15.7471 3.14892 17.7191 2.35987C19.6911 1.57081 21.9293 2.52978 22.7184 4.50178L29.5057 21.4646C30.2947 23.4366 29.3358 25.6748 27.3638 26.4639C25.3918 27.253 23.1535 26.294 22.3645 24.322L15.5771 7.35919Z" fill="#0B0F27"/>
<path d="M2.33252 7.35919C1.54346 5.38719 2.50243 3.14892 4.47443 2.35987C6.44643 1.57081 8.6847 2.52978 9.47376 4.50178L16.2611 21.4646C17.0501 23.4366 16.0912 25.6748 14.1192 26.4639C12.1472 27.253 9.90888 26.294 9.11983 24.322L2.33252 7.35919Z" fill="#0B0F27"/>
<path d="M28.7886 7.35919C27.9995 5.38719 28.9585 3.14892 30.9305 2.35987C32.9025 1.57081 35.1408 2.52978 35.9298 4.50178L42.7171 21.4646C43.5062 23.4366 42.5472 25.6748 40.5752 26.4639C38.6032 27.253 36.3649 26.294 35.5759 24.322L28.7886 7.35919Z" fill="#0B0F27"/>
<path d="M49.5093 7.35919C50.2983 5.38719 49.3394 3.14892 47.3674 2.35987C45.3954 1.57081 43.1571 2.52978 42.368 4.50178L35.5807 21.4646C34.7917 23.4366 35.7506 25.6748 37.7226 26.4639C39.6946 27.253 41.9329 26.294 42.722 24.322L49.5093 7.35919Z" fill="#EED441"/>
<path d="M134.906 16.1767V17.5346H129.502V16.1767H134.906ZM131.077 13.6782H132.679V23.618C132.679 24.0706 132.745 24.4101 132.876 24.6364C133.012 24.8582 133.184 25.0076 133.392 25.0845C133.605 25.157 133.829 25.1932 134.064 25.1932C134.241 25.1932 134.386 25.1841 134.499 25.166C134.612 25.1434 134.703 25.1253 134.771 25.1117L135.096 26.5511C134.988 26.5918 134.836 26.6325 134.642 26.6733C134.447 26.7185 134.2 26.7412 133.902 26.7412C133.449 26.7412 133.005 26.6438 132.571 26.4492C132.141 26.2546 131.783 25.9581 131.498 25.5598C131.217 25.1615 131.077 24.6591 131.077 24.0525V13.6782Z" fill="#0B0F27"/>
<path d="M123.616 26.8222C122.611 26.8222 121.744 26.6004 121.015 26.1568C120.291 25.7087 119.732 25.0841 119.338 24.2829C118.949 23.4773 118.754 22.5403 118.754 21.4721C118.754 20.4039 118.949 19.4624 119.338 18.6477C119.732 17.8284 120.28 17.1902 120.981 16.7331C121.687 16.2714 122.511 16.0405 123.453 16.0405C123.996 16.0405 124.532 16.1311 125.062 16.3121C125.591 16.4932 126.073 16.7874 126.508 17.1947C126.942 17.5976 127.289 18.1317 127.547 18.7971C127.805 19.4624 127.934 20.2817 127.934 21.2548V21.9338H119.895V20.5487H126.304C126.304 19.9603 126.187 19.4353 125.951 18.9736C125.72 18.5119 125.39 18.1475 124.96 17.8805C124.534 17.6134 124.032 17.4799 123.453 17.4799C122.814 17.4799 122.262 17.6383 121.796 17.9552C121.334 18.2675 120.979 18.6748 120.73 19.1773C120.481 19.6797 120.357 20.2183 120.357 20.7932V21.7165C120.357 22.5041 120.492 23.1717 120.764 23.7194C121.04 24.2626 121.423 24.6767 121.911 24.9619C122.4 25.2425 122.968 25.3828 123.616 25.3828C124.037 25.3828 124.417 25.324 124.756 25.2063C125.1 25.0841 125.397 24.903 125.646 24.6632C125.895 24.4187 126.087 24.1155 126.223 23.7534L127.771 24.1879C127.608 24.7129 127.334 25.1746 126.949 25.5729C126.565 25.9667 126.089 26.2745 125.523 26.4963C124.958 26.7136 124.322 26.8222 123.616 26.8222Z" fill="#0B0F27"/>
<path d="M116.308 12.7002V26.605H114.706V12.7002H116.308Z" fill="#0B0F27"/>
<path d="M111.771 12.7002V26.605H110.169V12.7002H111.771Z" fill="#0B0F27"/>
<path d="M102.464 26.8494C101.804 26.8494 101.204 26.7249 100.665 26.4759C100.127 26.2225 99.6988 25.8581 99.382 25.3828C99.0652 24.903 98.9067 24.3237 98.9067 23.6447C98.9067 23.0473 99.0244 22.5629 99.2598 22.1918C99.4952 21.8161 99.8097 21.5219 100.204 21.3092C100.597 21.0964 101.032 20.938 101.507 20.8339C101.987 20.7253 102.469 20.6393 102.953 20.5759C103.587 20.4944 104.101 20.4333 104.494 20.3926C104.893 20.3473 105.182 20.2726 105.364 20.1685C105.549 20.0644 105.642 19.8834 105.642 19.6254V19.5711C105.642 18.9012 105.459 18.3806 105.092 18.0095C104.73 17.6383 104.18 17.4527 103.442 17.4527C102.677 17.4527 102.077 17.6202 101.643 17.9552C101.208 18.2901 100.903 18.6477 100.726 19.0279L99.2055 18.4847C99.4771 17.8511 99.8392 17.3577 100.292 17.0046C100.749 16.6471 101.247 16.3981 101.785 16.2578C102.329 16.1129 102.863 16.0405 103.388 16.0405C103.723 16.0405 104.107 16.0813 104.542 16.1627C104.981 16.2397 105.404 16.4004 105.812 16.6448C106.224 16.8892 106.565 17.2581 106.837 17.7515C107.108 18.2448 107.244 18.9057 107.244 19.734V26.6049H105.642V25.1927H105.56C105.452 25.419 105.271 25.6612 105.017 25.9192C104.764 26.1772 104.427 26.3967 104.006 26.5778C103.585 26.7588 103.071 26.8494 102.464 26.8494ZM102.709 25.41C103.343 25.41 103.877 25.2855 104.311 25.0366C104.75 24.7876 105.081 24.4663 105.302 24.0725C105.529 23.6787 105.642 23.2645 105.642 22.83V21.3635C105.574 21.4449 105.425 21.5196 105.194 21.5875C104.967 21.6509 104.705 21.7075 104.406 21.7573C104.112 21.8025 103.825 21.8433 103.544 21.8795C103.268 21.9112 103.044 21.9383 102.872 21.9609C102.455 22.0153 102.066 22.1035 101.704 22.2257C101.346 22.3434 101.057 22.5222 100.835 22.7621C100.618 22.9975 100.509 23.3188 100.509 23.7262C100.509 24.2829 100.715 24.7039 101.127 24.989C101.543 25.2697 102.071 25.41 102.709 25.41Z" fill="#0B0F27"/>
<path d="M84.9613 26.605L81.1592 12.7002H82.8701L85.776 24.025H85.9118L88.872 12.7002H90.7731L93.7333 24.025H93.8691L96.775 12.7002H98.4859L94.6838 26.605H92.9457L89.8769 15.5246H89.7682L86.6994 26.605H84.9613Z" fill="#0B0F27"/>
</svg>