<svg width="164" height="93" viewBox="0 0 164 93" fill="none" xmlns="http://www.w3.org/2000/svg">
<path d="M163.695 18.1421C163.695 26.9014 157.643 34.4178 145.54 40.6914C137.461 44.9231 127.844 48.1338 116.687 50.3236L111.272 65.7708H95.0702L111.272 20.2284H127.34L119.706 41.5791C125.447 40.2771 130.536 38.25 134.975 35.4979C141.16 31.6214 144.371 27.1085 144.608 21.9595C144.756 18.6452 143.646 16.4701 141.278 15.4344C139.858 14.813 137.298 14.5023 133.599 14.5023H88.2344L95.159 3.31641H140.879C147.567 3.31641 152.671 4.14499 156.193 5.80215C161.194 8.13994 163.695 12.2533 163.695 18.1421Z" fill="white"/>
<path d="M31.1985 14.426C29.5372 10.274 31.5563 5.56143 35.7083 3.9001C39.8602 2.23878 44.5728 4.25785 46.2342 8.40983L60.5246 44.1244C62.186 48.2764 60.1669 52.989 56.0149 54.6504C51.8629 56.3117 47.1503 54.2926 45.489 50.1406L31.1985 14.426Z" fill="#EBF0F5"/>
<path d="M3.31327 14.426C1.65195 10.274 3.67102 5.56143 7.823 3.9001C11.975 2.23878 16.6876 4.25785 18.3489 8.40983L32.6394 44.1244C34.3007 48.2764 32.2816 52.989 28.1296 54.6504C23.9777 56.3117 19.2651 54.2926 17.6037 50.1406L3.31327 14.426Z" fill="#EBF0F5"/>
<path d="M59.0154 14.426C57.3541 10.274 59.3732 5.56143 63.5251 3.9001C67.6771 2.23878 72.3897 4.25785 74.0511 8.40983L88.3415 44.1244C90.0028 48.2764 87.9838 52.989 83.8318 54.6504C79.6798 56.3117 74.9672 54.2926 73.3059 50.1406L59.0154 14.426Z" fill="#EBF0F5"/>
<path d="M102.642 14.426C104.304 10.274 102.285 5.56143 98.1326 3.9001C93.9806 2.23878 89.268 4.25785 87.6066 8.40983L73.3162 44.1244C71.6549 48.2764 73.6739 52.989 77.8259 54.6504C81.9779 56.3117 86.6905 54.2926 88.3518 50.1406L102.642 14.426Z" fill="#EED441"/>
<path d="M119.313 77.8703V79.7748H111.734V77.8703H119.313ZM113.943 74.3662H116.19V88.3066C116.19 88.9414 116.282 89.4175 116.466 89.7349C116.657 90.0459 116.898 90.2554 117.19 90.3634C117.488 90.4649 117.803 90.5157 118.133 90.5157C118.38 90.5157 118.583 90.503 118.742 90.4776C118.901 90.4459 119.028 90.4205 119.123 90.4014L119.58 92.4201C119.428 92.4773 119.215 92.5344 118.942 92.5915C118.669 92.655 118.323 92.6867 117.904 92.6867C117.269 92.6867 116.647 92.5503 116.038 92.2773C115.435 92.0043 114.933 91.5885 114.533 91.0299C114.14 90.4713 113.943 89.7666 113.943 88.916V74.3662Z" fill="white"/>
<path d="M103.478 92.8008C102.069 92.8008 100.854 92.4897 99.8315 91.8676C98.8158 91.2392 98.0318 90.3631 97.4795 89.2395C96.9336 88.1096 96.6606 86.7955 96.6606 85.2974C96.6606 83.7992 96.9336 82.4788 97.4795 81.3362C98.0318 80.1872 98.7999 79.2921 99.7839 78.6509C100.774 78.0034 101.93 77.6797 103.25 77.6797C104.012 77.6797 104.764 77.8066 105.507 78.0606C106.249 78.3145 106.925 78.7271 107.535 79.2984C108.144 79.8634 108.63 80.6125 108.992 81.5457C109.354 82.4788 109.535 83.6278 109.535 84.9927V85.9449H98.2604V84.0024H107.249C107.249 83.1771 107.084 82.4407 106.754 81.7932C106.43 81.1457 105.967 80.6347 105.364 80.2602C104.767 79.8856 104.062 79.6984 103.25 79.6984C102.355 79.6984 101.58 79.9206 100.927 80.3649C100.279 80.8029 99.7807 81.3743 99.4316 82.0789C99.0824 82.7835 98.9079 83.539 98.9079 84.3452V85.6402C98.9079 86.7447 99.0983 87.6811 99.4792 88.4492C99.8664 89.211 100.403 89.7918 101.088 90.1917C101.774 90.5853 102.571 90.7821 103.478 90.7821C104.069 90.7821 104.602 90.6996 105.078 90.5345C105.561 90.3631 105.976 90.1092 106.326 89.7728C106.675 89.43 106.945 89.0046 107.135 88.4968L109.306 89.1062C109.077 89.8426 108.693 90.4901 108.154 91.0487C107.614 91.601 106.948 92.0327 106.154 92.3437C105.361 92.6484 104.469 92.8008 103.478 92.8008Z" fill="white"/>
<path d="M93.2301 72.9951V92.4964H90.9829V72.9951H93.2301Z" fill="white"/>
<path d="M86.8668 72.9951V92.4964H84.6196V72.9951H86.8668Z" fill="white"/>
<path d="M73.8143 92.8389C72.8875 92.8389 72.0464 92.6643 71.2909 92.3152C70.5355 91.9597 69.9356 91.4487 69.4913 90.7821C69.0469 90.1092 68.8247 89.2967 68.8247 88.3444C68.8247 87.5065 68.9898 86.8273 69.3199 86.3067C69.65 85.7798 70.0911 85.3672 70.6434 85.0688C71.1957 84.7705 71.8051 84.5483 72.4717 84.4023C73.1446 84.2499 73.8206 84.1293 74.4999 84.0405C75.3886 83.9262 76.1091 83.8405 76.6614 83.7834C77.22 83.7199 77.6263 83.6151 77.8802 83.4691C78.1405 83.3231 78.2706 83.0692 78.2706 82.7074V82.6312C78.2706 81.6917 78.0135 80.9616 77.4993 80.4411C76.9915 79.9206 76.2202 79.6603 75.1855 79.6603C74.1126 79.6603 73.2715 79.8952 72.6621 80.3649C72.0527 80.8347 71.6242 81.3362 71.3766 81.8694L69.2437 81.1076C69.6246 80.2189 70.1324 79.527 70.7672 79.0318C71.4084 78.5303 72.1067 78.1812 72.8621 77.9844C73.6238 77.7813 74.3729 77.6797 75.1093 77.6797C75.5791 77.6797 76.1186 77.7368 76.7281 77.8511C77.3438 77.959 77.9374 78.1844 78.5087 78.5272C79.0864 78.87 79.5656 79.3873 79.9465 80.0793C80.3274 80.7712 80.5179 81.698 80.5179 82.8597V92.4961H78.2706V90.5155H78.1564C78.004 90.8329 77.7501 91.1725 77.3946 91.5344C77.0391 91.8962 76.5662 92.2041 75.9758 92.458C75.3854 92.7119 74.6649 92.8389 73.8143 92.8389ZM74.1571 90.8202C75.0458 90.8202 75.7949 90.6456 76.4043 90.2965C77.0201 89.9473 77.4835 89.4966 77.7945 88.9443C78.1119 88.3921 78.2706 87.8112 78.2706 87.2018V85.145C78.1754 85.2593 77.9659 85.364 77.6422 85.4592C77.3248 85.5481 76.9566 85.6275 76.5376 85.6973C76.125 85.7608 75.7219 85.8179 75.3283 85.8687C74.9411 85.9131 74.6268 85.9512 74.3856 85.983C73.8016 86.0591 73.2557 86.1829 72.7478 86.3543C72.2463 86.5194 71.84 86.7701 71.529 87.1066C71.2243 87.4367 71.0719 87.8874 71.0719 88.4587C71.0719 89.2395 71.3608 89.8299 71.9384 90.2298C72.5225 90.6234 73.262 90.8202 74.1571 90.8202Z" fill="white"/>
<path d="M49.2665 92.4964L43.9341 72.9951H46.3337L50.4091 88.878H50.5996L54.7512 72.9951H57.4174L61.569 88.878H61.7595L65.8349 72.9951H68.2345L62.9021 92.4964H60.4645L56.1605 76.9563H56.0081L51.7041 92.4964H49.2665Z" fill="white"/>
</svg>