<svg width="74" height="87" viewBox="0 0 74 87" fill="none" xmlns="http://www.w3.org/2000/svg">
<path fill-rule="evenodd" clip-rule="evenodd" d="M36.1851 31.2187C35.8423 31.564 35.845 32.1221 36.1912 32.464L42.9726 39.1628C43.0532 39.2425 43.0536 39.3726 42.9733 39.4526C42.8934 39.5323 42.8934 39.6619 42.9733 39.7416L43.4526 40.2197C43.7959 40.5622 44.3515 40.5622 44.6948 40.2197L44.8408 40.0741C45.2678 39.6482 45.2661 38.9561 44.8371 38.5323L37.4272 31.2127C37.0823 30.872 36.5267 30.8747 36.1851 31.2187ZM36.182 36.2723C35.841 36.6193 35.8464 37.1773 36.1943 37.5175L42.97 44.1452C43.0503 44.2236 43.0509 44.3525 42.9714 44.4318C42.8925 44.5105 42.8925 44.6383 42.9714 44.7171L43.4526 45.1971C43.7959 45.5395 44.3515 45.5395 44.6948 45.1971L44.8405 45.0518C45.2687 44.6246 45.2653 43.9299 44.8329 43.507L37.4241 36.2602C37.0775 35.9211 36.5219 35.9266 36.182 36.2723Z" fill="#0B0F27"/>
<path fill-rule="evenodd" clip-rule="evenodd" d="M37.4336 31.2187C37.7764 31.564 37.7736 32.1221 37.4275 32.464L30.646 39.1628C30.5654 39.2425 30.5651 39.3726 30.6453 39.4526C30.7253 39.5323 30.7253 39.6619 30.6453 39.7416L30.166 40.2197C29.8227 40.5622 29.2671 40.5622 28.9238 40.2197L28.7778 40.0741C28.3509 39.6482 28.3526 38.9561 28.7816 38.5323L36.1914 31.2127C36.5363 30.872 37.092 30.8747 37.4336 31.2187ZM37.4366 36.2723C37.7777 36.6193 37.7722 37.1773 37.4244 37.5175L30.6486 44.1452C30.5684 44.2236 30.5678 44.3525 30.6472 44.4318C30.7261 44.5105 30.7261 44.6383 30.6472 44.7171L30.166 45.1971C29.8227 45.5395 29.2671 45.5395 28.9238 45.1971L28.7782 45.0518C28.35 44.6246 28.3534 43.9299 28.7858 43.507L36.1945 36.2602C36.5411 35.9211 37.0967 35.9266 37.4366 36.2723Z" fill="#0B0F27"/>
<path d="M38.2907 42.3708C37.5096 41.5897 36.2433 41.5897 35.4623 42.3708L29.9342 47.8988C29.1532 48.6798 29.1532 49.9462 29.9342 50.7272L35.4623 56.2552C36.2433 57.0363 37.5096 57.0363 38.2907 56.2552L43.8187 50.7272C44.5997 49.9462 44.5997 48.6798 43.8187 47.8988L38.2907 42.3708Z" fill="#0B0F27"/>
</svg>