<svg width="74" height="87" viewBox="0 0 74 87" fill="none" xmlns="http://www.w3.org/2000/svg">
<path d="M45.5556 32.5474C46.9056 32.5474 48 33.6268 48 34.9583L48 39.0739C48 40.4055 46.9056 41.4849 45.5556 41.4849H41.8889C40.5389 41.4849 39.4445 40.4055 39.4445 39.0739L39.4444 34.9583C39.4444 33.6268 40.5389 32.5474 41.8889 32.5474L45.5556 32.5474Z" fill="#0B0F27"/>
<path d="M28.4444 32.5474C27.0944 32.5474 26 33.6268 26 34.9583L26 39.0739C26 40.4055 27.0944 41.4849 28.4445 41.4849H32.1111C33.4611 41.4849 34.5556 40.4055 34.5556 39.0739L34.5556 34.9583C34.5556 33.6268 33.4611 32.5474 32.1111 32.5474L28.4444 32.5474Z" fill="#0B0F27"/>
<path d="M45.5556 45.6099C46.9056 45.6099 48 46.6893 48 48.0208V52.1364C48 53.4679 46.9056 54.5474 45.5556 54.5474H41.8889C40.5389 54.5474 39.4445 53.4679 39.4445 52.1364L39.4445 48.0208C39.4445 46.6893 40.5389 45.6099 41.8889 45.6099H45.5556Z" fill="#0B0F27"/>
<path d="M28.4445 45.6099C27.0944 45.6099 26 46.6893 26 48.0208L26 52.1364C26 53.4679 27.0944 54.5474 28.4445 54.5474H32.1111C33.4612 54.5474 34.5556 53.4679 34.5556 52.1364L34.5556 48.0208C34.5556 46.6893 33.4611 45.6099 32.1111 45.6099H28.4445Z" fill="#0B0F27"/>
</svg>