<svg width="74" height="87" viewBox="0 0 74 87" fill="none" xmlns="http://www.w3.org/2000/svg">
<path d="M47.2781 42.1724L45.375 40.18V35.2974C45.375 34.5411 44.7844 33.9224 44.0625 33.9224H42.75C42.0281 33.9224 41.4375 34.5411 41.4375 35.2974V36.0577L38.8125 33.3105C38.4542 32.9557 38.1261 32.5474 37.5 32.5474C36.8739 32.5474 36.5458 32.9557 36.1875 33.3105L27.7219 42.1724C27.3124 42.6192 27 42.9451 27 43.5474C27 44.3215 27.567 44.9224 28.3125 44.9224H29.625V53.1724C29.625 53.9286 30.2156 54.5474 30.9375 54.5474H33.5625C34.2874 54.5474 34.875 53.9318 34.875 53.1724V47.6724C34.875 46.9161 35.4656 46.2974 36.1875 46.2974H38.8125C39.5344 46.2974 40.125 46.9161 40.125 47.6724V53.1724C40.125 53.9318 40.0564 54.5474 40.7812 54.5474H44.0625C44.7844 54.5474 45.375 53.9286 45.375 53.1724V44.9224H46.6875C47.433 44.9224 48 44.3215 48 43.5474C48 42.9451 47.6876 42.6192 47.2781 42.1724Z" fill="#0B0F27"/>
</svg>