<svg width="74" height="87" viewBox="0 0 74 87" fill="none" xmlns="http://www.w3.org/2000/svg">
<path d="M45.5556 32.3545C46.9056 32.3545 48 33.4339 48 34.7654L48 38.8811C48 40.2126 46.9056 41.292 45.5556 41.292H41.8889C40.5389 41.292 39.4445 40.2126 39.4445 38.8811L39.4444 34.7654C39.4444 33.4339 40.5389 32.3545 41.8889 32.3545L45.5556 32.3545Z" fill="#A0A0A0"/>
<path d="M28.4444 32.3545C27.0944 32.3545 26 33.4339 26 34.7654L26 38.8811C26 40.2126 27.0944 41.292 28.4445 41.292H32.1111C33.4611 41.292 34.5556 40.2126 34.5556 38.8811L34.5556 34.7654C34.5556 33.4339 33.4611 32.3545 32.1111 32.3545L28.4444 32.3545Z" fill="#A0A0A0"/>
<path d="M45.5556 45.417C46.9056 45.417 48 46.4964 48 47.828V51.9435C48 53.2751 46.9056 54.3545 45.5556 54.3545H41.8889C40.5389 54.3545 39.4445 53.2751 39.4445 51.9435L39.4445 47.828C39.4445 46.4964 40.5389 45.417 41.8889 45.417H45.5556Z" fill="#A0A0A0"/>
<path d="M28.4445 45.417C27.0944 45.417 26 46.4964 26 47.828L26 51.9435C26 53.2751 27.0944 54.3545 28.4445 54.3545H32.1111C33.4612 54.3545 34.5556 53.2751 34.5556 51.9435L34.5556 47.828C34.5556 46.4964 33.4611 45.417 32.1111 45.417H28.4445Z" fill="#A0A0A0"/>
</svg>