<svg width="74" height="87" viewBox="0 0 74 87" fill="none" xmlns="http://www.w3.org/2000/svg">
<path fill-rule="evenodd" clip-rule="evenodd" d="M36.1851 31.0259C35.8423 31.3712 35.845 31.9292 36.1912 32.2711L42.9726 38.97C43.0532 39.0496 43.0536 39.1797 42.9733 39.2597C42.8934 39.3395 42.8934 39.469 42.9733 39.5488L43.4526 40.0269C43.7959 40.3693 44.3515 40.3693 44.6948 40.0269L44.8408 39.8812C45.2678 39.4553 45.2661 38.7632 44.8371 38.3394L37.4272 31.0198C37.0823 30.6791 36.5267 30.6818 36.1851 31.0259ZM36.182 36.0795C35.841 36.4264 35.8464 36.9844 36.1943 37.3246L42.97 43.9523C43.0503 44.0308 43.0509 44.1597 42.9714 44.2389C42.8925 44.3176 42.8925 44.4455 42.9714 44.5242L43.4526 45.0042C43.7959 45.3466 44.3515 45.3466 44.6948 45.0042L44.8405 44.8589C45.2687 44.4317 45.2653 43.737 44.8329 43.3141L37.4241 36.0673C37.0775 35.7283 36.5219 35.7337 36.182 36.0795Z" fill="#A0A0A0"/>
<path fill-rule="evenodd" clip-rule="evenodd" d="M37.4336 31.0259C37.7764 31.3712 37.7736 31.9292 37.4275 32.2711L30.646 38.97C30.5654 39.0496 30.5651 39.1797 30.6453 39.2597C30.7253 39.3395 30.7253 39.469 30.6453 39.5488L30.166 40.0269C29.8227 40.3693 29.2671 40.3693 28.9238 40.0269L28.7778 39.8812C28.3509 39.4553 28.3526 38.7632 28.7816 38.3394L36.1914 31.0198C36.5363 30.6791 37.092 30.6818 37.4336 31.0259ZM37.4366 36.0795C37.7777 36.4264 37.7722 36.9844 37.4244 37.3246L30.6486 43.9523C30.5684 44.0308 30.5678 44.1597 30.6472 44.2389C30.7261 44.3176 30.7261 44.4455 30.6472 44.5242L30.166 45.0042C29.8227 45.3466 29.2671 45.3466 28.9238 45.0042L28.7782 44.8589C28.35 44.4317 28.3534 43.737 28.7858 43.3141L36.1945 36.0673C36.5411 35.7283 37.0967 35.7337 37.4366 36.0795Z" fill="#A0A0A0"/>
<path d="M38.2907 42.1779C37.5096 41.3968 36.2433 41.3968 35.4623 42.1779L29.9342 47.7059C29.1532 48.487 29.1532 49.7533 29.9342 50.5343L35.4623 56.0624C36.2433 56.8434 37.5096 56.8434 38.2907 56.0624L43.8187 50.5343C44.5997 49.7533 44.5997 48.487 43.8187 47.7059L38.2907 42.1779Z" fill="#A0A0A0"/>
</svg>