<svg width="74" height="87" viewBox="0 0 74 87" fill="none" xmlns="http://www.w3.org/2000/svg">
<path d="M47.2781 41.9795L45.375 39.9871V35.1045C45.375 34.3482 44.7844 33.7295 44.0625 33.7295H42.75C42.0281 33.7295 41.4375 34.3482 41.4375 35.1045V35.8649L38.8125 33.1176C38.4542 32.7629 38.1261 32.3545 37.5 32.3545C36.8739 32.3545 36.5458 32.7629 36.1875 33.1176L27.7219 41.9795C27.3124 42.4264 27 42.7522 27 43.3545C27 44.1286 27.567 44.7295 28.3125 44.7295H29.625V52.9795C29.625 53.7357 30.2156 54.3545 30.9375 54.3545H33.5625C34.2874 54.3545 34.875 53.7389 34.875 52.9795V47.4795C34.875 46.7232 35.4656 46.1045 36.1875 46.1045H38.8125C39.5344 46.1045 40.125 46.7232 40.125 47.4795V52.9795C40.125 53.7389 40.0564 54.3545 40.7812 54.3545H44.0625C44.7844 54.3545 45.375 53.7357 45.375 52.9795V44.7295H46.6875C47.433 44.7295 48 44.1286 48 43.3545C48 42.7522 47.6876 42.4264 47.2781 41.9795Z" fill="#A0A0A0"/>
</svg>