<svg width="24" height="24" viewBox="0 0 24 24" fill="none" xmlns="http://www.w3.org/2000/svg">
<path d="M23 15.97C23 19.84 19.87 22.97 16 22.97L17.05 21.22" stroke="#0B0F27" stroke-width="1.5" stroke-linecap="round" stroke-linejoin="round"/>
<path d="M1 7.96997C1 4.09997 4.13 0.969971 8 0.969971L6.95 2.71997" stroke="#0B0F27" stroke-width="1.5" stroke-linecap="round" stroke-linejoin="round"/>
<path d="M7.12935 18C6.95305 18 6.8101 17.9608 6.70051 17.8824C6.59091 17.7994 6.50514 17.6727 6.4432 17.5021L5.04945 13.7469C4.97321 13.5394 4.98513 13.3642 5.08519 13.2213C5.19002 13.0738 5.37347 13 5.63554 13C5.81184 13 5.95003 13.0415 6.05009 13.1245C6.15016 13.2029 6.22878 13.3273 6.28596 13.4979L7.35092 16.5892H7.01499L8.15858 13.4979C8.22529 13.3273 8.30868 13.2029 8.40874 13.1245C8.50881 13.0415 8.63746 13 8.7947 13C8.95195 13 9.07822 13.0415 9.17352 13.1245C9.26882 13.2029 9.34744 13.3296 9.40938 13.5048L10.4815 16.5892H10.1956L11.2892 13.4979C11.3463 13.3273 11.4226 13.2029 11.5179 13.1245C11.6179 13.0415 11.7561 13 11.9324 13C12.1516 13 12.3112 13.0738 12.4113 13.2213C12.5161 13.3642 12.528 13.5394 12.447 13.7469L11.039 17.509C10.977 17.675 10.8913 17.7994 10.7817 17.8824C10.6769 17.9608 10.5363 18 10.36 18C10.1789 18 10.0336 17.9608 9.924 17.8824C9.81917 17.7994 9.73578 17.6727 9.67384 17.5021L8.66605 14.7635H8.84473L7.81551 17.509C7.7488 17.675 7.66303 17.7994 7.5582 17.8824C7.45337 17.9608 7.31042 18 7.12935 18Z" fill="#0B0F27"/>
<path d="M5.93359 15.5L5.00026 15.5" stroke="#0B0F27" stroke-width="1.5" stroke-miterlimit="10" stroke-linecap="round" stroke-linejoin="round"/>
<path d="M12.5996 15.5L11.6663 15.5" stroke="#0B0F27" stroke-width="1.5" stroke-miterlimit="10" stroke-linecap="round" stroke-linejoin="round"/>
<path d="M14.8498 15.33C14.8498 18.74 12.0898 21.4999 8.67977 21.4999C5.26977 21.4999 2.50977 18.74 2.50977 15.33C2.50977 11.92 5.26977 9.15991 8.67977 9.15991C8.83977 9.15991 8.98977 9.16993 9.15977 9.17993C12.1898 9.40993 14.6098 11.8299 14.8398 14.8599C14.8398 15.0099 14.8498 15.16 14.8498 15.33Z" stroke="#0B0F27" stroke-width="1.5" stroke-miterlimit="10" stroke-linecap="round" stroke-linejoin="round"/>
<path d="M21.5002 8.66998C21.5002 12.08 18.7402 14.84 15.3302 14.84H14.8402C14.6102 11.81 12.1902 9.38997 9.16016 9.15997V8.66998C9.16016 5.25998 11.9202 2.5 15.3302 2.5C18.7402 2.5 21.5002 5.25998 21.5002 8.66998Z" stroke="#0B0F27" stroke-width="1.5" stroke-miterlimit="10" stroke-linecap="round" stroke-linejoin="round"/>
<path d="M13 9.99004C13 10.76 13.6 11.39 14.33 11.39H15.83C16.47 11.39 16.99 10.84 16.99 10.17C16.99 9.44004 16.67 9.18004 16.2 9.01004L13.8 8.17004C13.32 8.00004 13 7.74004 13 7.01004C13 6.34004 13.52 5.79004 14.16 5.79004H15.66C16.4 5.80004 17 6.42004 17 7.19004" stroke="#0B0F27" stroke-width="1.5" stroke-linecap="round" stroke-linejoin="round"/>
<path d="M15 11.4402V12.1802" stroke="#0B0F27" stroke-width="1.5" stroke-linecap="round" stroke-linejoin="round"/>
<path d="M15 5V5.78" stroke="#0B0F27" stroke-width="1.5" stroke-linecap="round" stroke-linejoin="round"/>
</svg>