<svg width="24" height="25" viewBox="0 0 24 25" fill="none" xmlns="http://www.w3.org/2000/svg">
<path d="M6.53 17.3L6.1 16.98L6.72 15.93L5.64 15.48L5.81 14.97L6.95 15.26L7.05 14.04H7.6L7.7 15.25L8.84 14.97L9 15.48L7.92 15.93L8.56 16.98L8.12 17.3L7.33 16.34L6.53 17.3ZM11.198 17.3L10.768 16.98L11.388 15.93L10.308 15.48L10.478 14.97L11.618 15.26L11.718 14.04H12.268L12.368 15.25L13.508 14.97L13.668 15.48L12.588 15.93L13.228 16.98L12.788 17.3L11.998 16.34L11.198 17.3ZM15.8659 17.3L15.4359 16.98L16.0559 15.93L14.9759 15.48L15.1459 14.97L16.2859 15.26L16.3859 14.04H16.9359L17.0359 15.25L18.1759 14.97L18.3359 15.48L17.2559 15.93L17.8959 16.98L17.4559 17.3L16.6659 16.34L15.8659 17.3Z" fill="black"/>
<path d="M6 10V8C6 4.69 7 2 12 2C17 2 18 4.69 18 8V10" stroke="#292D32" stroke-width="1.5" stroke-linecap="round" stroke-linejoin="round"/>
<path d="M17 22H7C3 22 2 21 2 17V15C2 11 3 10 7 10H17C21 10 22 11 22 15V17C22 21 21 22 17 22Z" stroke="#292D32" stroke-width="1.5" stroke-linecap="round" stroke-linejoin="round"/>
</svg>