<svg width="233" height="107" viewBox="0 0 233 107" fill="none" xmlns="http://www.w3.org/2000/svg">
<g filter="url(#filter0_d_29_1025)">
<path d="M230.51 45.6032H221.799L208.275 32.7086H188.524V26.3556H214.408C215.75 26.3556 217.008 26.104 218.182 25.6008C219.356 25.0766 220.373 24.3742 221.232 23.4936C222.113 22.613 222.805 21.5856 223.308 20.4115C223.811 19.2164 224.063 17.9479 224.063 16.606C224.063 15.2641 223.811 14.0061 223.308 12.832C222.805 11.6578 222.113 10.6409 221.232 9.78127C220.373 8.90066 219.356 8.20876 218.182 7.70555C217.008 7.20234 215.75 6.95074 214.408 6.95074H184.907V45.6032H178.46V0.503418H214.408C216.63 0.503418 218.716 0.93324 220.666 1.79288C222.616 2.63156 224.315 3.78474 225.761 5.25242C227.229 6.69914 228.382 8.39746 229.221 10.3474C230.08 12.2973 230.51 14.3835 230.51 16.606C230.51 18.6188 230.164 20.5268 229.472 22.33C228.781 24.1122 227.827 25.7161 226.61 27.1419C225.394 28.5466 223.958 29.7208 222.302 30.6643C220.666 31.5869 218.895 32.2054 216.987 32.5199L230.51 45.6032Z" fill="white"/>
</g>
<g filter="url(#filter1_d_29_1025)">
<path fill-rule="evenodd" clip-rule="evenodd" d="M231.753 46.1059H221.597L208.073 33.2113H188.021V25.8522H214.407C215.683 25.8522 216.872 25.6136 217.98 25.1395C219.097 24.6402 220.06 23.9741 220.872 23.1419L220.876 23.1375C221.71 22.3037 222.366 21.3306 222.845 20.2143C223.321 19.0836 223.56 17.8823 223.56 16.6056C223.56 15.3284 223.32 14.1382 222.845 13.0298C222.367 11.914 221.712 10.9527 220.881 10.1409L220.876 10.1367L220.872 10.1323C220.06 9.30077 219.099 8.64578 217.983 8.16758C216.875 7.69256 215.685 7.45345 214.407 7.45345H185.41V46.1059H177.957V0H214.407C216.696 0 218.851 0.44286 220.867 1.33128C222.873 2.1943 224.624 3.38275 226.117 4.89641C227.63 6.38904 228.819 8.1404 229.682 10.1462C230.57 12.1622 231.013 14.3171 231.013 16.6056C231.013 18.6774 230.657 20.6467 229.942 22.5098L229.941 22.5117C229.229 24.3454 228.246 25.9984 226.993 27.468L226.99 27.4708C225.736 28.9198 224.255 30.1301 222.55 31.1011L222.549 31.1021C221.139 31.8971 219.633 32.4728 218.03 32.8297L231.753 46.1059ZM216.986 32.5195C217.191 32.4858 217.393 32.4487 217.595 32.408C219.272 32.0691 220.841 31.4877 222.301 30.664C223.958 29.7204 225.394 28.5463 226.61 27.1415C227.826 25.7158 228.78 24.1118 229.472 22.3296C230.164 20.5265 230.51 18.6185 230.51 16.6056C230.51 14.3832 230.08 12.2969 229.22 10.347C228.382 8.3971 227.229 6.69878 225.761 5.25207C224.314 3.78438 222.616 2.6312 220.666 1.79253C218.716 0.932885 216.63 0.503064 214.407 0.503064H178.46V45.6029H184.907V6.95039H214.407C215.749 6.95039 217.007 7.20199 218.181 7.70519C219.356 8.2084 220.372 8.90031 221.232 9.78092C222.113 10.6406 222.805 11.6575 223.308 12.8316C223.811 14.0057 224.063 15.2638 224.063 16.6056C224.063 17.9475 223.811 19.216 223.308 20.4111C222.805 21.5853 222.113 22.6127 221.232 23.4933C220.372 24.3739 219.356 25.0763 218.181 25.6004C217.007 26.1037 215.749 26.3553 214.407 26.3553H188.524V32.7082H208.275L221.798 45.6029H230.51L216.986 32.5195Z" fill="white"/>
</g>
<g filter="url(#filter2_d_29_1025)">
<path d="M170.219 23.0533C170.219 26.1774 169.716 29.1128 168.71 31.8594C167.724 34.6061 166.32 36.9963 164.495 39.0301C162.671 41.0639 160.48 42.6679 157.922 43.842C155.385 45.0162 152.565 45.6032 149.462 45.6032H126.724V39.1559H149.462C151.685 39.1559 153.677 38.7366 155.438 37.8979C157.22 37.0592 158.719 35.9165 159.935 34.4698C161.172 33.0021 162.116 31.2933 162.766 29.3434C163.437 27.3725 163.772 25.2758 163.772 23.0533C163.772 20.8308 163.437 18.7446 162.766 16.7947C162.116 14.8448 161.172 13.1465 159.935 11.6997C158.719 10.2321 157.22 9.07888 155.438 8.2402C153.677 7.38056 151.685 6.95074 149.462 6.95074H123.516V45.6032H117.068V0.503418H149.462C152.565 0.503418 155.385 1.10097 157.922 2.29609C160.48 3.47023 162.671 5.08469 164.495 7.13944C166.32 9.17323 167.724 11.5635 168.71 14.3101C169.716 17.0358 170.219 19.9502 170.219 23.0533Z" fill="white"/>
</g>
<g filter="url(#filter3_d_29_1025)">
<path fill-rule="evenodd" clip-rule="evenodd" d="M126.221 46.1059V38.6525H149.462C151.62 38.6525 153.537 38.2456 155.222 37.4433L155.224 37.4423C156.943 36.6333 158.383 35.5344 159.55 34.1458L159.551 34.1452C160.744 32.7296 161.657 31.0778 162.289 29.184L162.29 29.1809C162.942 27.2657 163.269 25.224 163.269 23.053C163.269 20.8818 162.942 18.8513 162.29 16.958L162.289 16.9534C161.658 15.0601 160.745 13.4199 159.553 12.0263L159.55 12.0234L159.548 12.0204C158.381 10.6115 156.941 9.50331 155.224 8.69503L155.22 8.69351L155.217 8.69194C153.533 7.87008 151.619 7.45345 149.462 7.45345H124.019V46.1059H116.565V0H149.462C152.631 0 155.524 0.610348 158.135 1.83955C160.753 3.04183 163 4.69706 164.871 6.80428C166.741 8.88895 168.177 11.3355 169.183 14.1378C170.211 16.9223 170.723 19.8953 170.723 23.053C170.723 26.2313 170.211 29.225 169.183 32.0302C168.177 34.8333 166.74 37.2805 164.87 39.3656C162.999 41.452 160.752 43.0964 158.134 44.2983C155.523 45.5062 152.63 46.1059 149.462 46.1059H126.221ZM168.71 14.3098C167.725 11.5631 166.32 9.17288 164.496 7.13909C162.672 5.08433 160.48 3.46988 157.923 2.29573C155.386 1.10062 152.565 0.503064 149.462 0.503064H117.068V45.6029H123.516V6.95039H149.462C151.685 6.95039 153.677 7.38021 155.438 8.23985C157.22 9.07853 158.719 10.2317 159.935 11.6994C161.172 13.1461 162.116 14.8444 162.766 16.7943C163.437 18.7443 163.772 20.8305 163.772 23.053C163.772 25.2755 163.437 27.3722 162.766 29.343C162.116 31.293 161.172 33.0018 159.935 34.4694C158.719 35.9162 157.22 37.0589 155.438 37.8975C153.677 38.7362 151.685 39.1556 149.462 39.1556H126.724V45.6029H149.462C152.565 45.6029 155.386 45.0158 157.923 43.8417C160.48 42.6675 162.672 41.0635 164.496 39.0297C166.32 36.996 167.725 34.6057 168.71 31.8591C169.716 29.1124 170.22 26.177 170.22 23.053C170.22 19.9499 169.716 17.0355 168.71 14.3098Z" fill="white"/>
</g>
<g filter="url(#filter4_d_29_1025)">
<path d="M109.05 45.6032H62.4087V0.503418H109.05V6.95074H68.856V39.1559H109.05V45.6032ZM103.577 26.2927H72.064V19.8454H103.577V26.2927Z" fill="white"/>
</g>
<g filter="url(#filter5_d_29_1025)">
<path fill-rule="evenodd" clip-rule="evenodd" d="M109.553 46.1059H61.9058V0H109.553V7.45345H69.3592V38.6525H109.553V46.1059ZM68.8561 39.1556V6.95039H109.05V0.503064H62.4088V45.6029H109.05V39.1556H68.8561ZM104.08 26.7954H71.561V19.342H104.08V26.7954ZM103.577 26.2924V19.845H72.0641V26.2924H103.577Z" fill="white"/>
</g>
<g filter="url(#filter6_d_29_1025)">
<path d="M54.8607 32.7086C54.8607 34.5117 54.5147 36.1996 53.8228 37.7721C53.1519 39.3236 52.2293 40.6865 51.0552 41.8606C49.902 43.0138 48.5391 43.9259 46.9666 44.5968C45.3941 45.2678 43.7272 45.6032 41.966 45.6032H11.4277V39.1559H41.966C42.8466 39.1559 43.6748 38.9882 44.4506 38.6527C45.2473 38.3172 45.9392 37.856 46.5263 37.2689C47.1134 36.6818 47.5747 36.0004 47.9101 35.2246C48.2456 34.4279 48.4133 33.5892 48.4133 32.7086C48.4133 31.828 48.2456 30.9998 47.9101 30.224C47.5747 29.4482 47.1134 28.7668 46.5263 28.1797C45.9392 27.5927 45.2473 27.1314 44.4506 26.7959C43.6748 26.4604 42.8466 26.2927 41.966 26.2927H11.4277V19.8454H35.5187C36.3993 19.8454 37.2275 19.6777 38.0033 19.3422C38.8 19.0067 39.4919 18.5454 40.079 17.9584C40.6661 17.3713 41.1273 16.6899 41.4628 15.9141C41.7983 15.1173 41.966 14.2787 41.966 13.3981C41.966 12.5175 41.7983 11.6893 41.4628 10.9135C41.1273 10.1167 40.6661 9.42484 40.079 8.83776C39.4919 8.25069 38.8 7.78942 38.0033 7.45395C37.2275 7.11848 36.3993 6.95074 35.5187 6.95074H8.21978V45.6032H1.77246V0.503418H35.5187C37.2799 0.503418 38.9468 0.849372 40.5193 1.54128C42.0918 2.21222 43.4547 3.13476 44.6078 4.30891C45.782 5.46209 46.7045 6.82494 47.3755 8.39746C48.0674 9.96997 48.4133 11.6368 48.4133 13.3981C48.4133 14.7609 48.2141 16.0504 47.8158 17.2665C47.4174 18.4616 46.8827 19.5728 46.2118 20.6002C47.4698 21.0405 48.623 21.659 49.6713 22.4558C50.7407 23.2525 51.6527 24.1751 52.4075 25.2234C53.1833 26.2717 53.7809 27.4354 54.2002 28.7144C54.6405 29.9724 54.8607 31.3038 54.8607 32.7086Z" fill="white"/>
</g>
<g filter="url(#filter7_d_29_1025)">
<path fill-rule="evenodd" clip-rule="evenodd" d="M10.9248 46.1059V38.6525H41.9661C42.781 38.6525 43.541 38.4977 44.251 38.1906L44.2555 38.1887C44.9948 37.8774 45.6316 37.452 46.1707 36.9128C46.7115 36.3721 47.1368 35.7447 47.4474 35.0271C47.7558 34.2939 47.9104 33.5224 47.9104 32.7082C47.9104 31.8934 47.7556 31.1334 47.4485 30.4233C47.1378 29.7047 46.7121 29.0765 46.1707 28.5351C45.6316 27.9959 44.9948 27.5705 44.2555 27.2592L44.251 27.2573C43.541 26.9502 42.781 26.7954 41.9661 26.7954H10.9248V19.342H35.5188C36.3337 19.342 37.0936 19.1872 37.8037 18.8801L37.8082 18.8782C38.5475 18.5669 39.1842 18.1415 39.7234 17.6023C40.2642 17.0615 40.6895 16.4341 41.0001 15.7165C41.3085 14.9833 41.4631 14.2118 41.4631 13.3977C41.4631 12.5828 41.3083 11.8229 41.0012 11.1128L40.9993 11.1084C40.688 10.3691 40.2626 9.73229 39.7234 9.19313C39.1842 8.65396 38.5475 8.22851 37.8082 7.91723L37.8037 7.91535C37.0936 7.60826 36.3337 7.45345 35.5188 7.45345H8.72298V46.1059H1.26953V0H35.5188C37.347 0 39.0822 0.359366 40.7194 1.07932C42.3476 1.77436 43.764 2.73211 44.9637 3.95284C46.1844 5.1526 47.1422 6.56898 47.8372 8.19709C48.5572 9.83433 48.9165 11.5695 48.9165 13.3977C48.9165 14.8103 48.71 16.1529 48.294 17.4227L48.2932 17.4252C47.9489 18.4579 47.5057 19.4315 46.9632 20.3451C48.0446 20.7809 49.0486 21.3504 49.974 22.0535C51.0815 22.879 52.0289 23.8367 52.8139 24.9264C53.6209 26.0174 54.2416 27.227 54.6768 28.5526C55.1357 29.8654 55.3638 31.2517 55.3638 32.7082C55.3638 34.5771 55.005 36.3339 54.284 37.973C53.5884 39.5811 52.6304 40.9966 51.411 42.216C50.2102 43.4168 48.7929 44.3642 47.1642 45.0592C45.5273 45.7575 43.7931 46.1059 41.9661 46.1059H10.9248ZM53.8229 37.7717C54.5148 36.1992 54.8608 34.5114 54.8608 32.7082C54.8608 31.3034 54.6406 29.972 54.2003 28.714C53.781 27.435 53.1834 26.2714 52.4077 25.223C51.6529 24.1747 50.7408 23.2522 49.6715 22.4554C48.7587 21.7617 47.7665 21.2031 46.6948 20.7796C46.5356 20.7167 46.3747 20.6568 46.2119 20.5998C46.3059 20.4559 46.3972 20.3104 46.4858 20.1632C47.03 19.2595 47.4733 18.2938 47.8159 17.2661C48.2143 16.05 48.4135 14.7606 48.4135 13.3977C48.4135 11.6365 48.0675 9.96962 47.3756 8.3971C46.7047 6.82459 45.7821 5.46174 44.608 4.30856C43.4548 3.13441 42.0919 2.21187 40.5194 1.54093C38.9469 0.849018 37.28 0.503064 35.5188 0.503064H1.77259V45.6029H8.21992V6.95039H35.5188C36.3994 6.95039 37.2276 7.11812 38.0034 7.45359C38.8001 7.78906 39.4921 8.25033 40.0791 8.83741C40.6662 9.42448 41.1275 10.1164 41.4629 10.9131C41.7984 11.6889 41.9661 12.5171 41.9661 13.3977C41.9661 14.2783 41.7984 15.117 41.4629 15.9137C41.1275 16.6895 40.6662 17.3709 40.0791 17.958C39.4921 18.5451 38.8001 19.0064 38.0034 19.3418C37.2276 19.6773 36.3994 19.845 35.5188 19.845H11.4279V26.2924H41.9661C42.8468 26.2924 43.6749 26.4601 44.4507 26.7956C45.2475 27.131 45.9394 27.5923 46.5264 28.1794C47.1135 28.7664 47.5748 29.4479 47.9103 30.2236C48.2457 30.9994 48.4135 31.8276 48.4135 32.7082C48.4135 33.5888 48.2457 34.4275 47.9103 35.2243C47.5748 36 47.1135 36.6815 46.5264 37.2685C45.9394 37.8556 45.2475 38.3169 44.4507 38.6523C43.6749 38.9878 42.8468 39.1556 41.9661 39.1556H11.4279V45.6029H41.9661C43.7274 45.6029 45.3942 45.2674 46.9668 44.5965C48.5393 43.9255 49.9021 43.0135 51.0553 41.8603C52.2294 40.6861 53.152 39.3233 53.8229 37.7717Z" fill="white"/>
</g>
<g filter="url(#filter8_d_29_1025)">
<path d="M185.572 78.3388V94.6026C185.572 95.9453 185.857 96.902 186.428 97.4727C186.999 98.0098 187.989 98.2783 189.399 98.2783H192.772V102.155H188.644C186.092 102.155 184.179 101.568 182.903 100.393C181.628 99.2182 180.99 97.288 180.99 94.6026V78.3388H177.415V74.5624H180.99V67.6138H185.572V74.5624H192.772V78.3388H185.572Z" fill="white"/>
<path d="M173.934 87.3036C173.934 88.1764 173.884 89.0995 173.783 90.073H151.729C151.896 92.792 152.82 94.9236 154.498 96.4677C156.21 97.9783 158.274 98.7336 160.691 98.7336C162.672 98.7336 164.317 98.2804 165.626 97.3741C166.969 96.4342 167.909 95.1921 168.446 93.648H173.38C172.642 96.2999 171.165 98.465 168.949 100.143C166.734 101.788 163.981 102.611 160.691 102.611C158.073 102.611 155.723 102.023 153.642 100.848C151.594 99.6735 149.983 98.0119 148.808 95.8635C147.633 93.6816 147.046 91.164 147.046 88.3107C147.046 85.4574 147.617 82.9565 148.758 80.8082C149.899 78.6598 151.494 77.015 153.541 75.8737C155.623 74.6988 158.006 74.1113 160.691 74.1113C163.31 74.1113 165.626 74.682 167.64 75.8233C169.654 76.9646 171.198 78.5423 172.272 80.5564C173.38 82.5369 173.934 84.786 173.934 87.3036ZM169.201 86.3469C169.201 84.6014 168.815 83.1076 168.043 81.8656C167.271 80.59 166.213 79.6333 164.871 78.9955C163.561 78.3241 162.101 77.9885 160.49 77.9885C158.174 77.9885 156.193 78.727 154.548 80.204C152.937 81.681 152.014 83.7286 151.779 86.3469H169.201Z" fill="white"/>
<path d="M140.948 64.8955V102.156H136.366V64.8955H140.948Z" fill="white"/>
<path d="M128.558 64.8955V102.156H123.976V64.8955H128.558Z" fill="white"/>
<path d="M88.2363 88.2603C88.2363 85.4406 88.807 82.9733 89.9483 80.8585C91.0896 78.7102 92.6505 77.0485 94.6311 75.8737C96.6452 74.6988 98.8774 74.1113 101.328 74.1113C103.745 74.1113 105.843 74.6316 107.622 75.6722C109.401 76.7129 110.727 78.022 111.6 79.5997V74.5645H116.232V102.158H111.6V97.0216C110.693 98.6329 109.334 99.9756 107.521 101.05C105.742 102.09 103.661 102.611 101.278 102.611C98.8271 102.611 96.6116 102.006 94.6311 100.798C92.6505 99.5896 91.0896 97.8944 89.9483 95.7124C88.807 93.5305 88.2363 91.0465 88.2363 88.2603ZM111.6 88.3107C111.6 86.2294 111.18 84.4168 110.341 82.8726C109.502 81.3285 108.36 80.1536 106.917 79.348C105.507 78.5088 103.946 78.0892 102.234 78.0892C100.522 78.0892 98.9614 78.492 97.5515 79.2976C96.1416 80.1032 95.0171 81.2781 94.1779 82.8223C93.3387 84.3664 92.9191 86.1791 92.9191 88.2603C92.9191 90.3751 93.3387 92.2214 94.1779 93.7991C95.0171 95.3432 96.1416 96.5349 97.5515 97.3741C98.9614 98.1797 100.522 98.5825 102.234 98.5825C103.946 98.5825 105.507 98.1797 106.917 97.3741C108.36 96.5349 109.502 95.3432 110.341 93.7991C111.18 92.2214 111.6 90.3919 111.6 88.3107Z" fill="white"/>
<path d="M84.9326 67.062L74.7614 102.158H69.6255L61.4684 73.9099L53.0092 102.158L47.9237 102.208L38.105 67.062H42.9891L50.6427 96.8202L59.1019 67.062H64.2378L72.2942 96.7195L79.9981 67.062H84.9326Z" fill="white"/>
</g>
<defs>
<filter id="filter0_d_29_1025" x="177.46" y="0.503418" width="54.0503" height="47.0996" filterUnits="userSpaceOnUse" color-interpolation-filters="sRGB">
<feFlood flood-opacity="0" result="BackgroundImageFix"/>
<feColorMatrix in="SourceAlpha" type="matrix" values="0 0 0 0 0 0 0 0 0 0 0 0 0 0 0 0 0 0 127 0" result="hardAlpha"/>
<feOffset dy="1"/>
<feGaussianBlur stdDeviation="0.5"/>
<feComposite in2="hardAlpha" operator="out"/>
<feColorMatrix type="matrix" values="0 0 0 0 0 0 0 0 0 0 0 0 0 0 0 0 0 0 0.25 0"/>
<feBlend mode="normal" in2="BackgroundImageFix" result="effect1_dropShadow_29_1025"/>
<feBlend mode="normal" in="SourceGraphic" in2="effect1_dropShadow_29_1025" result="shape"/>
</filter>
<filter id="filter1_d_29_1025" x="176.957" y="0" width="55.7969" height="48.106" filterUnits="userSpaceOnUse" color-interpolation-filters="sRGB">
<feFlood flood-opacity="0" result="BackgroundImageFix"/>
<feColorMatrix in="SourceAlpha" type="matrix" values="0 0 0 0 0 0 0 0 0 0 0 0 0 0 0 0 0 0 127 0" result="hardAlpha"/>
<feOffset dy="1"/>
<feGaussianBlur stdDeviation="0.5"/>
<feComposite in2="hardAlpha" operator="out"/>
<feColorMatrix type="matrix" values="0 0 0 0 0 0 0 0 0 0 0 0 0 0 0 0 0 0 0.25 0"/>
<feBlend mode="normal" in2="BackgroundImageFix" result="effect1_dropShadow_29_1025"/>
<feBlend mode="normal" in="SourceGraphic" in2="effect1_dropShadow_29_1025" result="shape"/>
</filter>
<filter id="filter2_d_29_1025" x="116.068" y="0.503418" width="55.1509" height="47.0996" filterUnits="userSpaceOnUse" color-interpolation-filters="sRGB">
<feFlood flood-opacity="0" result="BackgroundImageFix"/>
<feColorMatrix in="SourceAlpha" type="matrix" values="0 0 0 0 0 0 0 0 0 0 0 0 0 0 0 0 0 0 127 0" result="hardAlpha"/>
<feOffset dy="1"/>
<feGaussianBlur stdDeviation="0.5"/>
<feComposite in2="hardAlpha" operator="out"/>
<feColorMatrix type="matrix" values="0 0 0 0 0 0 0 0 0 0 0 0 0 0 0 0 0 0 0.25 0"/>
<feBlend mode="normal" in2="BackgroundImageFix" result="effect1_dropShadow_29_1025"/>
<feBlend mode="normal" in="SourceGraphic" in2="effect1_dropShadow_29_1025" result="shape"/>
</filter>
<filter id="filter3_d_29_1025" x="115.565" y="0" width="56.1572" height="48.106" filterUnits="userSpaceOnUse" color-interpolation-filters="sRGB">
<feFlood flood-opacity="0" result="BackgroundImageFix"/>
<feColorMatrix in="SourceAlpha" type="matrix" values="0 0 0 0 0 0 0 0 0 0 0 0 0 0 0 0 0 0 127 0" result="hardAlpha"/>
<feOffset dy="1"/>
<feGaussianBlur stdDeviation="0.5"/>
<feComposite in2="hardAlpha" operator="out"/>
<feColorMatrix type="matrix" values="0 0 0 0 0 0 0 0 0 0 0 0 0 0 0 0 0 0 0.25 0"/>
<feBlend mode="normal" in2="BackgroundImageFix" result="effect1_dropShadow_29_1025"/>
<feBlend mode="normal" in="SourceGraphic" in2="effect1_dropShadow_29_1025" result="shape"/>
</filter>
<filter id="filter4_d_29_1025" x="61.4087" y="0.503418" width="48.6411" height="47.0996" filterUnits="userSpaceOnUse" color-interpolation-filters="sRGB">
<feFlood flood-opacity="0" result="BackgroundImageFix"/>
<feColorMatrix in="SourceAlpha" type="matrix" values="0 0 0 0 0 0 0 0 0 0 0 0 0 0 0 0 0 0 127 0" result="hardAlpha"/>
<feOffset dy="1"/>
<feGaussianBlur stdDeviation="0.5"/>
<feComposite in2="hardAlpha" operator="out"/>
<feColorMatrix type="matrix" values="0 0 0 0 0 0 0 0 0 0 0 0 0 0 0 0 0 0 0.25 0"/>
<feBlend mode="normal" in2="BackgroundImageFix" result="effect1_dropShadow_29_1025"/>
<feBlend mode="normal" in="SourceGraphic" in2="effect1_dropShadow_29_1025" result="shape"/>
</filter>
<filter id="filter5_d_29_1025" x="60.9058" y="0" width="49.647" height="48.106" filterUnits="userSpaceOnUse" color-interpolation-filters="sRGB">
<feFlood flood-opacity="0" result="BackgroundImageFix"/>
<feColorMatrix in="SourceAlpha" type="matrix" values="0 0 0 0 0 0 0 0 0 0 0 0 0 0 0 0 0 0 127 0" result="hardAlpha"/>
<feOffset dy="1"/>
<feGaussianBlur stdDeviation="0.5"/>
<feComposite in2="hardAlpha" operator="out"/>
<feColorMatrix type="matrix" values="0 0 0 0 0 0 0 0 0 0 0 0 0 0 0 0 0 0 0.25 0"/>
<feBlend mode="normal" in2="BackgroundImageFix" result="effect1_dropShadow_29_1025"/>
<feBlend mode="normal" in="SourceGraphic" in2="effect1_dropShadow_29_1025" result="shape"/>
</filter>
<filter id="filter6_d_29_1025" x="0.772461" y="0.503418" width="55.0884" height="47.0996" filterUnits="userSpaceOnUse" color-interpolation-filters="sRGB">
<feFlood flood-opacity="0" result="BackgroundImageFix"/>
<feColorMatrix in="SourceAlpha" type="matrix" values="0 0 0 0 0 0 0 0 0 0 0 0 0 0 0 0 0 0 127 0" result="hardAlpha"/>
<feOffset dy="1"/>
<feGaussianBlur stdDeviation="0.5"/>
<feComposite in2="hardAlpha" operator="out"/>
<feColorMatrix type="matrix" values="0 0 0 0 0 0 0 0 0 0 0 0 0 0 0 0 0 0 0.25 0"/>
<feBlend mode="normal" in2="BackgroundImageFix" result="effect1_dropShadow_29_1025"/>
<feBlend mode="normal" in="SourceGraphic" in2="effect1_dropShadow_29_1025" result="shape"/>
</filter>
<filter id="filter7_d_29_1025" x="0.269531" y="0" width="56.0942" height="48.106" filterUnits="userSpaceOnUse" color-interpolation-filters="sRGB">
<feFlood flood-opacity="0" result="BackgroundImageFix"/>
<feColorMatrix in="SourceAlpha" type="matrix" values="0 0 0 0 0 0 0 0 0 0 0 0 0 0 0 0 0 0 127 0" result="hardAlpha"/>
<feOffset dy="1"/>
<feGaussianBlur stdDeviation="0.5"/>
<feComposite in2="hardAlpha" operator="out"/>
<feColorMatrix type="matrix" values="0 0 0 0 0 0 0 0 0 0 0 0 0 0 0 0 0 0 0.25 0"/>
<feBlend mode="normal" in2="BackgroundImageFix" result="effect1_dropShadow_29_1025"/>
<feBlend mode="normal" in="SourceGraphic" in2="effect1_dropShadow_29_1025" result="shape"/>
</filter>
<filter id="filter8_d_29_1025" x="36.105" y="64.8955" width="158.667" height="41.7153" filterUnits="userSpaceOnUse" color-interpolation-filters="sRGB">
<feFlood flood-opacity="0" result="BackgroundImageFix"/>
<feColorMatrix in="SourceAlpha" type="matrix" values="0 0 0 0 0 0 0 0 0 0 0 0 0 0 0 0 0 0 127 0" result="hardAlpha"/>
<feOffset dy="2"/>
<feGaussianBlur stdDeviation="1"/>
<feComposite in2="hardAlpha" operator="out"/>
<feColorMatrix type="matrix" values="0 0 0 0 0 0 0 0 0 0 0 0 0 0 0 0 0 0 0.25 0"/>
<feBlend mode="normal" in2="BackgroundImageFix" result="effect1_dropShadow_29_1025"/>
<feBlend mode="normal" in="SourceGraphic" in2="effect1_dropShadow_29_1025" result="shape"/>
</filter>
</defs>
</svg>
