<svg width="322" height="147" viewBox="0 0 322 147" fill="none" xmlns="http://www.w3.org/2000/svg">
<g filter="url(#filter0_d_27_1002)">
<path d="M318.302 63.1209H306.244L287.525 45.2729H260.187V36.4795H296.014C297.871 36.4795 299.612 36.1312 301.238 35.4347C302.863 34.7092 304.27 33.737 305.46 32.5181C306.679 31.2992 307.637 29.8771 308.333 28.2519C309.03 26.5977 309.378 24.842 309.378 22.9846C309.378 21.1272 309.03 19.386 308.333 17.7608C307.637 16.1356 306.679 14.7281 305.46 13.5382C304.27 12.3193 302.863 11.3616 301.238 10.6651C299.612 9.96857 297.871 9.62032 296.014 9.62032H255.181V63.1209H246.257V0.696289H296.014C299.09 0.696289 301.978 1.29122 304.677 2.48109C307.376 3.64194 309.726 5.23811 311.729 7.2696C313.76 9.27206 315.356 11.6228 316.517 14.3218C317.707 17.0207 318.302 19.9083 318.302 22.9846C318.302 25.7706 317.823 28.4116 316.865 30.9074C315.908 33.3742 314.587 35.5943 312.904 37.5678C311.221 39.5122 309.233 41.1374 306.94 42.4433C304.677 43.7203 302.224 44.5764 299.583 45.0117L318.302 63.1209Z" fill="white"/>
</g>
<g filter="url(#filter1_d_27_1002)">
<path fill-rule="evenodd" clip-rule="evenodd" d="M320.023 63.8173H305.965L287.246 45.9692H259.491V35.7832H296.014C297.78 35.7832 299.426 35.4529 300.959 34.7967C302.505 34.1056 303.837 33.1837 304.962 32.0317L304.968 32.0257C306.122 30.8715 307.03 29.5247 307.692 27.9795C308.351 26.4145 308.682 24.7516 308.682 22.9846C308.682 21.2167 308.351 19.5693 307.693 18.0351C307.031 16.4907 306.125 15.1601 304.974 14.0365L304.968 14.0306L304.962 14.0246C303.838 12.8736 302.508 11.967 300.963 11.3051C299.429 10.6476 297.782 10.3167 296.014 10.3167H255.877V63.8173H245.561V0H296.014C299.181 0 302.164 0.612982 304.955 1.84269C307.731 3.03724 310.155 4.68222 312.221 6.77734C314.316 8.84335 315.961 11.2675 317.156 14.0438C318.385 16.8342 318.998 19.817 318.998 22.9846C318.998 25.8523 318.505 28.5781 317.516 31.1569L317.515 31.1594C316.529 33.6976 315.169 35.9855 313.434 38.0196L313.431 38.0235C311.694 40.0292 309.644 41.7044 307.285 43.0484L307.282 43.0498C305.332 44.1502 303.246 44.9471 301.029 45.4411L320.023 63.8173ZM299.583 45.0117C299.866 44.9651 300.147 44.9137 300.425 44.8574C302.747 44.3882 304.919 43.5835 306.94 42.4433C309.233 41.1374 311.221 39.5122 312.904 37.5678C314.587 35.5943 315.908 33.3742 316.866 30.9074C317.823 28.4116 318.302 25.7707 318.302 22.9846C318.302 19.9084 317.707 17.0208 316.517 14.3218C315.356 11.6228 313.76 9.27209 311.729 7.26962C309.726 5.23813 307.376 3.64197 304.677 2.48112C301.978 1.29125 299.09 0.696313 296.014 0.696313H246.257V63.121H255.181V9.62034H296.014C297.871 9.62034 299.612 9.96859 301.238 10.6651C302.863 11.3616 304.27 12.3193 305.46 13.5382C306.679 14.7281 307.637 16.1356 308.333 17.7608C309.03 19.386 309.378 21.1273 309.378 22.9846C309.378 24.842 309.03 26.5978 308.333 28.252C307.637 29.8772 306.679 31.2992 305.46 32.5181C304.27 33.737 302.863 34.7092 301.238 35.4347C299.612 36.1312 297.871 36.4795 296.014 36.4795H260.187V45.2729H287.525L306.244 63.121H318.302L299.583 45.0117Z" fill="white"/>
</g>
<g filter="url(#filter2_d_27_1002)">
<path d="M234.851 31.9086C234.851 36.2328 234.155 40.2958 232.762 44.0975C231.398 47.8993 229.453 51.2077 226.928 54.0228C224.404 56.8378 221.371 59.058 217.83 60.6832C214.319 62.3084 210.415 63.1209 206.12 63.1209H174.647V54.1969H206.12C209.197 54.1969 211.954 53.6165 214.391 52.4556C216.858 51.2948 218.933 49.7131 220.616 47.7107C222.329 45.6792 223.635 43.314 224.534 40.615C225.463 37.887 225.927 34.9849 225.927 31.9086C225.927 28.8324 225.463 25.9448 224.534 23.2458C223.635 20.5468 222.329 18.1961 220.616 16.1936C218.933 14.1621 216.858 12.566 214.391 11.4051C211.954 10.2153 209.197 9.62032 206.12 9.62032H170.206V63.1209H161.282V0.696289H206.12C210.415 0.696289 214.319 1.52339 217.83 3.1776C221.371 4.80279 224.404 7.03743 226.928 9.88151C229.453 12.6966 231.398 16.005 232.762 19.8068C234.155 23.5795 234.851 27.6135 234.851 31.9086Z" fill="white"/>
</g>
<g filter="url(#filter3_d_27_1002)">
<path fill-rule="evenodd" clip-rule="evenodd" d="M173.95 63.8173V53.5006H206.12C209.107 53.5006 211.76 52.9375 214.092 51.827L214.095 51.8256C216.475 50.7058 218.468 49.1848 220.083 47.2627L220.084 47.2619C221.736 45.3025 223 43.0162 223.874 40.3948L223.875 40.3906C224.778 37.7396 225.231 34.9137 225.231 31.9086C225.231 28.9035 224.778 26.093 223.876 23.4724L223.874 23.466C223 20.8454 221.737 18.5751 220.087 16.6462L220.084 16.6421L220.08 16.6379C218.464 14.6879 216.472 13.154 214.095 12.0352L214.09 12.0331L214.086 12.0309C211.755 10.8933 209.105 10.3167 206.12 10.3167H170.903V63.8173H160.586V0H206.12C210.506 0 214.511 0.84481 218.124 2.54621C221.748 4.21033 224.859 6.50141 227.448 9.4181C230.036 12.3036 232.024 15.6899 233.416 19.5687C234.839 23.4229 235.548 27.538 235.548 31.9086C235.548 36.3079 234.839 40.4516 233.417 44.3344C232.024 48.2144 230.035 51.6016 227.447 54.4877C224.857 57.3755 221.746 59.6516 218.122 61.3153C214.51 62.9872 210.505 63.8173 206.12 63.8173H173.95ZM232.762 19.8068C231.398 16.005 229.453 12.6966 226.929 9.88153C224.404 7.03745 221.371 4.80282 217.83 3.17763C214.319 1.52342 210.415 0.696313 206.12 0.696313H161.282V63.121H170.207V9.62034H206.12C209.197 9.62034 211.954 10.2153 214.391 11.4051C216.858 12.566 218.933 14.1622 220.616 16.1936C222.329 18.1961 223.635 20.5468 224.534 23.2458C225.463 25.9448 225.927 28.8324 225.927 31.9086C225.927 34.9849 225.463 37.887 224.534 40.615C223.635 43.314 222.329 45.6792 220.616 47.7107C218.933 49.7132 216.858 51.2948 214.391 52.4557C211.954 53.6165 209.197 54.1969 206.12 54.1969H174.647V63.121H206.12C210.415 63.121 214.319 62.3084 217.83 60.6832C221.371 59.058 224.404 56.8379 226.929 54.0228C229.453 51.2078 231.398 47.8993 232.762 44.0976C234.155 40.2958 234.851 36.2328 234.851 31.9086C234.851 27.6135 234.155 23.5795 232.762 19.8068Z" fill="white"/>
</g>
<g filter="url(#filter4_d_27_1002)">
<path d="M150.183 63.1209H85.625V0.696289H150.183V9.62032H94.549V54.1969H150.183V63.1209ZM142.608 36.3924H98.9893V27.4684H142.608V36.3924Z" fill="white"/>
</g>
<g filter="url(#filter5_d_27_1002)">
<path fill-rule="evenodd" clip-rule="evenodd" d="M150.879 63.8173H84.9287V0H150.879V10.3167H95.2454V53.5006H150.879V63.8173ZM94.5491 54.1969V9.62034H150.183V0.696313H85.625V63.121H150.183V54.1969H94.5491ZM143.305 37.0887H98.293V26.7721H143.305V37.0887ZM142.608 36.3924V27.4684H98.9893V36.3924H142.608Z" fill="white"/>
</g>
<g filter="url(#filter6_d_27_1002)">
<path d="M75.178 45.2729C75.178 47.7687 74.6992 50.1049 73.7415 52.2815C72.8128 54.4291 71.5359 56.3155 69.9107 57.9407C68.3145 59.5368 66.4281 60.7993 64.2515 61.7279C62.075 62.6566 59.7678 63.1209 57.33 63.1209H15.0606V54.1969H57.33C58.5489 54.1969 59.6952 53.9648 60.769 53.5004C61.8718 53.0361 62.8295 52.3976 63.6421 51.585C64.4547 50.7724 65.0932 49.8292 65.5575 48.7554C66.0218 47.6526 66.254 46.4918 66.254 45.2729C66.254 44.054 66.0218 42.9077 65.5575 41.8339C65.0932 40.7601 64.4547 39.8169 63.6421 39.0043C62.8295 38.1917 61.8718 37.5532 60.769 37.0889C59.6952 36.6246 58.5489 36.3924 57.33 36.3924H15.0606V27.4684H48.406C49.6248 27.4684 50.7712 27.2362 51.845 26.7719C52.9478 26.3075 53.9055 25.6691 54.7181 24.8565C55.5307 24.0439 56.1691 23.1007 56.6335 22.0269C57.0978 20.9241 57.33 19.7632 57.33 18.5443C57.33 17.3255 57.0978 16.1791 56.6335 15.1053C56.1691 14.0025 55.5307 13.0448 54.7181 12.2322C53.9055 11.4196 52.9478 10.7812 51.845 10.3168C50.7712 9.85249 49.6248 9.62032 48.406 9.62032H10.6203V63.1209H1.69629V0.696289H48.406C50.8437 0.696289 53.1509 1.17514 55.3275 2.13284C57.5041 3.06152 59.3905 4.33845 60.9867 5.96364C62.6118 7.55981 63.8888 9.44619 64.8175 11.6228C65.7752 13.7994 66.254 16.1066 66.254 18.5443C66.254 20.4307 65.9783 22.2155 65.4269 23.8988C64.8755 25.553 64.1355 27.0911 63.2068 28.5131C64.9481 29.1226 66.5442 29.9787 67.9953 31.0815C69.4754 32.1843 70.7378 33.4613 71.7826 34.9123C72.8563 36.3634 73.6834 37.9741 74.2639 39.7444C74.8733 41.4856 75.178 43.3285 75.178 45.2729Z" fill="white"/>
</g>
<g filter="url(#filter7_d_27_1002)">
<path fill-rule="evenodd" clip-rule="evenodd" d="M14.3643 63.8173V53.5006H57.33C58.4579 53.5006 59.5098 53.2863 60.4926 52.8613L60.4988 52.8587C61.5221 52.4278 62.4035 51.8389 63.1498 51.0927C63.8982 50.3442 64.4869 49.4758 64.9169 48.4826C65.3438 47.4677 65.5577 46.3998 65.5577 45.2729C65.5577 44.145 65.3434 43.0932 64.9184 42.1103C64.4883 41.1156 63.8991 40.2461 63.1498 39.4967C62.4035 38.7504 61.5221 38.1615 60.4988 37.7307L60.4926 37.7281C59.5098 37.303 58.4579 37.0887 57.33 37.0887H14.3643V26.7721H48.406C49.5339 26.7721 50.5857 26.5578 51.5686 26.1328L51.5748 26.1301C52.5981 25.6993 53.4794 25.1104 54.2257 24.3641C54.9742 23.6156 55.5629 22.7472 55.9929 21.754C56.4198 20.7391 56.6337 19.6712 56.6337 18.5444C56.6337 17.4165 56.4194 16.3646 55.9944 15.3817L55.9917 15.3756C55.5609 14.3523 54.972 13.4709 54.2257 12.7246C53.4794 11.9783 52.5981 11.3894 51.5748 10.9586L51.5686 10.956C50.5857 10.5309 49.5339 10.3167 48.406 10.3167H11.3167V63.8173H1V0H48.406C50.9365 0 53.3382 0.497415 55.6044 1.49394C57.8579 2.45598 59.8184 3.78163 61.4791 5.4713C63.1687 7.13194 64.4944 9.09242 65.4564 11.346C66.4529 13.6121 66.9503 16.0139 66.9503 18.5444C66.9503 20.4996 66.6644 22.3579 66.0886 24.1156L66.0875 24.119C65.611 25.5484 64.9975 26.896 64.2467 28.1606C65.7434 28.7637 67.1331 29.552 68.4141 30.5252C69.947 31.6678 71.2584 32.9934 72.3449 34.5017C73.4618 36.0118 74.3211 37.6861 74.9234 39.5209C75.5586 41.3381 75.8744 43.2568 75.8744 45.2729C75.8744 47.8597 75.3776 50.2913 74.3797 52.5601C73.4168 54.7859 72.0909 56.7452 70.4031 58.433C68.741 60.0951 66.7792 61.4065 64.5248 62.3684C62.2592 63.3351 59.8588 63.8173 57.33 63.8173H14.3643ZM73.7415 52.2815C74.6992 50.1049 75.1781 47.7687 75.1781 45.2729C75.1781 43.3285 74.8733 41.4856 74.2639 39.7444C73.6835 37.9741 72.8564 36.3634 71.7826 34.9123C70.7378 33.4613 69.4754 32.1843 67.9953 31.0815C66.7319 30.1214 65.3586 29.3482 63.8752 28.762C63.6548 28.6749 63.432 28.592 63.2068 28.5132C63.3369 28.314 63.4632 28.1125 63.5859 27.9088C64.3391 26.658 64.9527 25.3213 65.4269 23.8988C65.9783 22.2156 66.254 20.4307 66.254 18.5444C66.254 16.1066 65.7752 13.7994 64.8175 11.6228C63.8888 9.44621 62.6119 7.55983 60.9867 5.96367C59.3905 4.33848 57.5041 3.06154 55.3275 2.13286C53.1509 1.17516 50.8438 0.696313 48.406 0.696313H1.69631V63.121H10.6203V9.62034H48.406C49.6249 9.62034 50.7712 9.85251 51.845 10.3168C52.9478 10.7812 53.9055 11.4197 54.7181 12.2323C55.5307 13.0448 56.1692 14.0025 56.6335 15.1054C57.0978 16.1791 57.33 17.3255 57.33 18.5444C57.33 19.7633 57.0978 20.9241 56.6335 22.0269C56.1692 23.1007 55.5307 24.0439 54.7181 24.8565C53.9055 25.6691 52.9478 26.3075 51.845 26.7719C50.7712 27.2362 49.6249 27.4684 48.406 27.4684H15.0606V36.3924H57.33C58.5489 36.3924 59.6952 36.6246 60.769 37.0889C61.8718 37.5533 62.8295 38.1917 63.6421 39.0043C64.4547 39.8169 65.0932 40.7601 65.5575 41.8339C66.0219 42.9077 66.254 44.054 66.254 45.2729C66.254 46.4918 66.0219 47.6527 65.5575 48.7555C65.0932 49.8293 64.4547 50.7724 63.6421 51.585C62.8295 52.3976 61.8718 53.0361 60.769 53.5004C59.6952 53.9648 58.5489 54.1969 57.33 54.1969H15.0606V63.121H57.33C59.7678 63.121 62.075 62.6566 64.2516 61.728C66.4282 60.7993 68.3145 59.5368 69.9107 57.9407C71.5359 56.3155 72.8128 54.4291 73.7415 52.2815Z" fill="white"/>
</g>
<g filter="url(#filter8_d_27_1002)">
<path d="M256.101 108.432V130.943C256.101 132.802 256.496 134.126 257.285 134.916C258.075 135.659 259.446 136.031 261.397 136.031H266.067V141.398H260.352C256.821 141.398 254.172 140.584 252.407 138.958C250.641 137.332 249.758 134.66 249.758 130.943V108.432H244.81V103.205H249.758V93.5869H256.101V103.205H266.067V108.432H256.101Z" fill="white"/>
<path d="M239.992 120.841C239.992 122.049 239.922 123.326 239.783 124.674H209.257C209.489 128.437 210.767 131.388 213.09 133.525C215.459 135.616 218.317 136.661 221.662 136.661C224.404 136.661 226.68 136.034 228.492 134.78C230.351 133.479 231.652 131.759 232.395 129.622H239.225C238.203 133.293 236.159 136.29 233.092 138.613C230.026 140.889 226.216 142.028 221.662 142.028C218.038 142.028 214.786 141.215 211.905 139.589C209.071 137.962 206.84 135.662 205.214 132.689C203.588 129.669 202.775 126.184 202.775 122.235C202.775 118.285 203.565 114.824 205.145 111.85C206.724 108.876 208.931 106.6 211.766 105.02C214.646 103.394 217.945 102.581 221.662 102.581C225.286 102.581 228.492 103.37 231.28 104.95C234.068 106.53 236.205 108.714 237.692 111.502C239.225 114.243 239.992 117.356 239.992 120.841ZM233.441 119.516C233.441 117.1 232.906 115.033 231.838 113.314C230.769 111.548 229.305 110.224 227.447 109.341C225.635 108.412 223.614 107.947 221.383 107.947C218.177 107.947 215.436 108.969 213.159 111.014C210.929 113.058 209.651 115.892 209.326 119.516H233.441Z" fill="white"/>
<path d="M194.335 89.8242V141.398H187.993V89.8242H194.335Z" fill="white"/>
<path d="M177.185 89.8242V141.398H170.843V89.8242H177.185Z" fill="white"/>
<path d="M121.374 122.165C121.374 118.262 122.164 114.847 123.743 111.92C125.323 108.946 127.484 106.646 130.225 105.02C133.013 103.394 136.103 102.581 139.494 102.581C142.84 102.581 145.744 103.301 148.206 104.741C150.669 106.181 152.504 107.994 153.712 110.177V103.208H160.124V141.401H153.712V134.292C152.458 136.522 150.576 138.38 148.067 139.867C145.604 141.308 142.724 142.028 139.425 142.028C136.033 142.028 132.966 141.191 130.225 139.519C127.484 137.846 125.323 135.5 123.743 132.48C122.164 129.46 121.374 126.021 121.374 122.165ZM153.712 122.235C153.712 119.354 153.131 116.845 151.97 114.707C150.808 112.57 149.228 110.944 147.231 109.829C145.279 108.667 143.119 108.086 140.749 108.086C138.379 108.086 136.219 108.644 134.267 109.759C132.316 110.874 130.759 112.5 129.598 114.638C128.436 116.775 127.855 119.284 127.855 122.165C127.855 125.092 128.436 127.647 129.598 129.831C130.759 131.969 132.316 133.618 134.267 134.78C136.219 135.895 138.379 136.452 140.749 136.452C143.119 136.452 145.279 135.895 147.231 134.78C149.228 133.618 150.808 131.969 151.97 129.831C153.131 127.647 153.712 125.115 153.712 122.235Z" fill="white"/>
<path d="M116.801 92.8232L102.723 141.401H95.6141L84.3235 102.302L72.6148 141.401L65.5756 141.47L51.9851 92.8232H58.7455L69.3391 134.013L81.0478 92.8232H88.1567L99.3079 133.873L109.971 92.8232H116.801Z" fill="white"/>
</g>
<defs>
<filter id="filter0_d_27_1002" x="245.257" y="0.696289" width="74.0452" height="64.4248" filterUnits="userSpaceOnUse" color-interpolation-filters="sRGB">
<feFlood flood-opacity="0" result="BackgroundImageFix"/>
<feColorMatrix in="SourceAlpha" type="matrix" values="0 0 0 0 0 0 0 0 0 0 0 0 0 0 0 0 0 0 127 0" result="hardAlpha"/>
<feOffset dy="1"/>
<feGaussianBlur stdDeviation="0.5"/>
<feComposite in2="hardAlpha" operator="out"/>
<feColorMatrix type="matrix" values="0 0 0 0 0 0 0 0 0 0 0 0 0 0 0 0 0 0 0.25 0"/>
<feBlend mode="normal" in2="BackgroundImageFix" result="effect1_dropShadow_27_1002"/>
<feBlend mode="normal" in="SourceGraphic" in2="effect1_dropShadow_27_1002" result="shape"/>
</filter>
<filter id="filter1_d_27_1002" x="244.561" y="0" width="76.4626" height="65.8174" filterUnits="userSpaceOnUse" color-interpolation-filters="sRGB">
<feFlood flood-opacity="0" result="BackgroundImageFix"/>
<feColorMatrix in="SourceAlpha" type="matrix" values="0 0 0 0 0 0 0 0 0 0 0 0 0 0 0 0 0 0 127 0" result="hardAlpha"/>
<feOffset dy="1"/>
<feGaussianBlur stdDeviation="0.5"/>
<feComposite in2="hardAlpha" operator="out"/>
<feColorMatrix type="matrix" values="0 0 0 0 0 0 0 0 0 0 0 0 0 0 0 0 0 0 0.25 0"/>
<feBlend mode="normal" in2="BackgroundImageFix" result="effect1_dropShadow_27_1002"/>
<feBlend mode="normal" in="SourceGraphic" in2="effect1_dropShadow_27_1002" result="shape"/>
</filter>
<filter id="filter2_d_27_1002" x="160.282" y="0.696289" width="75.5688" height="64.4248" filterUnits="userSpaceOnUse" color-interpolation-filters="sRGB">
<feFlood flood-opacity="0" result="BackgroundImageFix"/>
<feColorMatrix in="SourceAlpha" type="matrix" values="0 0 0 0 0 0 0 0 0 0 0 0 0 0 0 0 0 0 127 0" result="hardAlpha"/>
<feOffset dy="1"/>
<feGaussianBlur stdDeviation="0.5"/>
<feComposite in2="hardAlpha" operator="out"/>
<feColorMatrix type="matrix" values="0 0 0 0 0 0 0 0 0 0 0 0 0 0 0 0 0 0 0.25 0"/>
<feBlend mode="normal" in2="BackgroundImageFix" result="effect1_dropShadow_27_1002"/>
<feBlend mode="normal" in="SourceGraphic" in2="effect1_dropShadow_27_1002" result="shape"/>
</filter>
<filter id="filter3_d_27_1002" x="159.586" y="0" width="76.9614" height="65.8174" filterUnits="userSpaceOnUse" color-interpolation-filters="sRGB">
<feFlood flood-opacity="0" result="BackgroundImageFix"/>
<feColorMatrix in="SourceAlpha" type="matrix" values="0 0 0 0 0 0 0 0 0 0 0 0 0 0 0 0 0 0 127 0" result="hardAlpha"/>
<feOffset dy="1"/>
<feGaussianBlur stdDeviation="0.5"/>
<feComposite in2="hardAlpha" operator="out"/>
<feColorMatrix type="matrix" values="0 0 0 0 0 0 0 0 0 0 0 0 0 0 0 0 0 0 0.25 0"/>
<feBlend mode="normal" in2="BackgroundImageFix" result="effect1_dropShadow_27_1002"/>
<feBlend mode="normal" in="SourceGraphic" in2="effect1_dropShadow_27_1002" result="shape"/>
</filter>
<filter id="filter4_d_27_1002" x="84.625" y="0.696289" width="66.5576" height="64.4248" filterUnits="userSpaceOnUse" color-interpolation-filters="sRGB">
<feFlood flood-opacity="0" result="BackgroundImageFix"/>
<feColorMatrix in="SourceAlpha" type="matrix" values="0 0 0 0 0 0 0 0 0 0 0 0 0 0 0 0 0 0 127 0" result="hardAlpha"/>
<feOffset dy="1"/>
<feGaussianBlur stdDeviation="0.5"/>
<feComposite in2="hardAlpha" operator="out"/>
<feColorMatrix type="matrix" values="0 0 0 0 0 0 0 0 0 0 0 0 0 0 0 0 0 0 0.25 0"/>
<feBlend mode="normal" in2="BackgroundImageFix" result="effect1_dropShadow_27_1002"/>
<feBlend mode="normal" in="SourceGraphic" in2="effect1_dropShadow_27_1002" result="shape"/>
</filter>
<filter id="filter5_d_27_1002" x="83.9287" y="0" width="67.9504" height="65.8174" filterUnits="userSpaceOnUse" color-interpolation-filters="sRGB">
<feFlood flood-opacity="0" result="BackgroundImageFix"/>
<feColorMatrix in="SourceAlpha" type="matrix" values="0 0 0 0 0 0 0 0 0 0 0 0 0 0 0 0 0 0 127 0" result="hardAlpha"/>
<feOffset dy="1"/>
<feGaussianBlur stdDeviation="0.5"/>
<feComposite in2="hardAlpha" operator="out"/>
<feColorMatrix type="matrix" values="0 0 0 0 0 0 0 0 0 0 0 0 0 0 0 0 0 0 0.25 0"/>
<feBlend mode="normal" in2="BackgroundImageFix" result="effect1_dropShadow_27_1002"/>
<feBlend mode="normal" in="SourceGraphic" in2="effect1_dropShadow_27_1002" result="shape"/>
</filter>
<filter id="filter6_d_27_1002" x="0.696289" y="0.696289" width="75.4817" height="64.4248" filterUnits="userSpaceOnUse" color-interpolation-filters="sRGB">
<feFlood flood-opacity="0" result="BackgroundImageFix"/>
<feColorMatrix in="SourceAlpha" type="matrix" values="0 0 0 0 0 0 0 0 0 0 0 0 0 0 0 0 0 0 127 0" result="hardAlpha"/>
<feOffset dy="1"/>
<feGaussianBlur stdDeviation="0.5"/>
<feComposite in2="hardAlpha" operator="out"/>
<feColorMatrix type="matrix" values="0 0 0 0 0 0 0 0 0 0 0 0 0 0 0 0 0 0 0.25 0"/>
<feBlend mode="normal" in2="BackgroundImageFix" result="effect1_dropShadow_27_1002"/>
<feBlend mode="normal" in="SourceGraphic" in2="effect1_dropShadow_27_1002" result="shape"/>
</filter>
<filter id="filter7_d_27_1002" x="0" y="0" width="76.8743" height="65.8174" filterUnits="userSpaceOnUse" color-interpolation-filters="sRGB">
<feFlood flood-opacity="0" result="BackgroundImageFix"/>
<feColorMatrix in="SourceAlpha" type="matrix" values="0 0 0 0 0 0 0 0 0 0 0 0 0 0 0 0 0 0 127 0" result="hardAlpha"/>
<feOffset dy="1"/>
<feGaussianBlur stdDeviation="0.5"/>
<feComposite in2="hardAlpha" operator="out"/>
<feColorMatrix type="matrix" values="0 0 0 0 0 0 0 0 0 0 0 0 0 0 0 0 0 0 0.25 0"/>
<feBlend mode="normal" in2="BackgroundImageFix" result="effect1_dropShadow_27_1002"/>
<feBlend mode="normal" in="SourceGraphic" in2="effect1_dropShadow_27_1002" result="shape"/>
</filter>
<filter id="filter8_d_27_1002" x="49.9851" y="89.8242" width="218.082" height="56.2036" filterUnits="userSpaceOnUse" color-interpolation-filters="sRGB">
<feFlood flood-opacity="0" result="BackgroundImageFix"/>
<feColorMatrix in="SourceAlpha" type="matrix" values="0 0 0 0 0 0 0 0 0 0 0 0 0 0 0 0 0 0 127 0" result="hardAlpha"/>
<feOffset dy="2"/>
<feGaussianBlur stdDeviation="1"/>
<feComposite in2="hardAlpha" operator="out"/>
<feColorMatrix type="matrix" values="0 0 0 0 0 0 0 0 0 0 0 0 0 0 0 0 0 0 0.25 0"/>
<feBlend mode="normal" in2="BackgroundImageFix" result="effect1_dropShadow_27_1002"/>
<feBlend mode="normal" in="SourceGraphic" in2="effect1_dropShadow_27_1002" result="shape"/>
</filter>
</defs>
</svg>
