<svg xmlns="http://www.w3.org/2000/svg" width="512" height="512" viewBox="0 0 512 512" version="1.1">
	<path d="M 0 256.002 L 0 512.004 256.250 511.752 L 512.500 511.500 512.752 255.750 L 513.004 0 256.502 0 L 0 0 0 256.002 M 0.492 256.500 C 0.492 397.300, 0.608 454.751, 0.750 384.170 C 0.892 313.588, 0.892 198.388, 0.750 128.170 C 0.608 57.951, 0.492 115.700, 0.492 256.500 M 67.502 179.139 C 57.726 181.420, 51.476 189.438, 51.632 199.500 C 51.715 204.865, 53.739 210.497, 70.749 252.698 C 81.212 278.657, 90.763 301.498, 91.973 303.457 C 97.325 312.117, 110.156 315.029, 119.312 309.663 C 126.162 305.649, 130 298.999, 130 291.147 C 130 286.773, 91.996 191.029, 88.360 186.241 C 83.881 180.344, 75.120 177.361, 67.502 179.139 M 139.502 179.139 C 129.726 181.420, 123.476 189.438, 123.632 199.500 C 123.715 204.866, 125.745 210.512, 142.831 252.903 C 153.339 278.974, 163.046 301.982, 164.402 304.032 C 167.658 308.952, 174.846 312.448, 181.512 312.354 C 192.978 312.192, 202 302.854, 202 291.147 C 202 286.773, 163.996 191.029, 160.360 186.241 C 155.881 180.344, 147.120 177.361, 139.502 179.139 M 211.236 178.949 C 201.509 181.346, 194.157 191.474, 195.326 200.865 C 195.887 205.373, 231.947 296.715, 235.620 302.934 C 236.631 304.645, 239.229 307.273, 241.394 308.773 C 244.842 311.162, 246.277 311.500, 252.988 311.500 C 261.513 311.500, 265.544 309.616, 269.782 303.651 C 270.992 301.947, 280.415 279.463, 290.721 253.687 L 309.459 206.821 356.479 207.194 C 398.718 207.530, 403.905 207.747, 407.486 209.332 C 413.434 211.963, 415.788 214.695, 417.079 220.461 C 420.901 237.540, 406.787 255.911, 380.525 268.044 C 371.811 272.070, 355.193 277.526, 354.315 276.649 C 353.932 276.265, 367.441 237.106, 372.736 223.250 C 373.109 222.274, 368.638 222.005, 352.357 222.021 L 331.500 222.043 311.079 279.771 C 299.847 311.522, 290.461 338.063, 290.222 338.750 C 289.882 339.724, 294.399 340, 310.680 340 L 331.575 340 338.531 320.055 L 345.487 300.109 358.994 296.932 C 401.158 287.014, 439.339 267.990, 454.294 249.445 C 463.791 237.668, 467.686 226.308, 466.702 213.260 C 465.441 196.552, 456.011 186.298, 437.500 181.508 C 425.926 178.514, 407.563 177.845, 346 178.175 L 285.500 178.500 280.713 180.857 C 277.995 182.196, 274.866 184.775, 273.472 186.827 C 272.121 188.814, 267.104 200.241, 262.322 212.220 C 257.540 224.199, 253.345 234, 253 234 C 252.655 234, 248.399 223.988, 243.543 211.750 C 238.686 199.512, 233.665 188.084, 232.384 186.352 C 228.285 180.814, 218.114 177.253, 211.236 178.949" stroke="none" fill="black" fill-rule="evenodd"/>
</svg>